<svg xmlns="http://www.w3.org/2000/svg" viewBox="0 0 455.625 61.5644989"><path d="M447.273 56.866h3.47v-7.184c0-3.715 1.903-5.558 4.728-5.558h.154v-3.776c-2.457-.123-4.023 1.32-4.883 3.44v-3.195h-3.469v16.273zm-11.852.308c2.21 0 3.5-1.229 4.42-2.671v2.363h3.502V40.593h-3.501v9.856c0 2.241-1.258 3.593-3.07 3.593-1.812 0-2.886-1.26-2.886-3.531v-9.918h-3.47v10.901c0 3.5 1.842 5.68 5.005 5.68m-21.555-.308h3.47v-9.855c0-2.242 1.259-3.593 3.07-3.593 1.843 0 2.917 1.259 2.917 3.53v9.918h3.47v-10.9c0-3.469-1.873-5.68-5.005-5.68-2.21 0-3.531 1.259-4.452 2.701v-8.29h-3.47v22.17zm-6.048.246c1.166 0 2.088-.276 2.886-.707v-2.854a3.938 3.938 0 0 1-1.873.46c-1.104 0-1.75-.523-1.75-1.782v-8.658h3.654v-2.978h-3.654V36.2h-3.47v4.392h-1.78v2.978h1.78v9.366c0 3.162 1.812 4.175 4.207 4.175m-15.936-.246h3.47v-7.184c0-3.715 1.904-5.558 4.728-5.558h.154v-3.776c-2.456-.123-4.022 1.32-4.882 3.44v-3.195h-3.47v16.273zm-13.387-9.212c.246-2.762 1.597-4.45 3.501-4.45 2.026 0 3.193 1.871 3.377 4.45h-6.878zm3.992 9.551c2.426 0 4.238-.952 5.711-2.518l-1.812-2.149c-1.074 1.044-2.21 1.719-3.745 1.719-2.119 0-3.808-1.475-4.115-4.207h10.194c.031-.491.031-.983.031-1.197 0-4.882-2.334-8.567-6.755-8.567-3.992 0-6.94 3.501-6.94 8.383v.245c0 5.097 3.255 8.291 7.431 8.291m-12.343-.093c1.166 0 2.087-.276 2.886-.707v-2.854a3.941 3.941 0 0 1-1.873.46c-1.106 0-1.75-.523-1.75-1.782v-8.658h3.653v-2.978h-3.654V36.2h-3.469v4.392h-1.78v2.978h1.78v9.366c0 3.162 1.811 4.175 4.207 4.175m-21.525-.246h3.47v-9.855c0-2.242 1.26-3.593 3.07-3.593 1.843 0 2.917 1.259 2.917 3.53v9.918h3.47v-10.9c0-3.469-1.873-5.68-5.005-5.68-2.21 0-3.531 1.259-4.452 2.701v-2.394h-3.47v16.273zm-7.584 0h3.47V40.593h-3.47v16.273zm-.122-18.637h3.686V34.82h-3.686v3.409zm-24.103 18.76h3.223l4.39-15.169 4.392 15.17h3.224l6.264-21.617h-3.685l-4.207 15.599-4.39-15.66h-3.07l-4.391 15.66-4.207-15.599h-3.777l6.234 21.616zm-29.785-.123h3.47v-9.855c0-2.242 1.259-3.593 3.071-3.593 1.842 0 2.917 1.259 2.917 3.53v9.918h3.47v-10.9c0-3.469-1.874-5.68-5.006-5.68-2.21 0-3.531 1.259-4.452 2.701v-2.394h-3.47v16.273zm-7.583 0h3.47V40.593h-3.47v16.273zm-.123-18.637h3.685V34.82h-3.685v3.409zm-19.037 18.637h3.47v-7.184c0-3.715 1.904-5.558 4.728-5.558h.154v-3.776c-2.456-.123-4.022 1.32-4.882 3.44v-3.195h-3.47v16.273zm-13.388-9.212c.247-2.762 1.598-4.45 3.502-4.45 2.026 0 3.194 1.871 3.377 4.45h-6.879zm3.993 9.551c2.426 0 4.237-.952 5.712-2.518l-1.813-2.149c-1.073 1.044-2.21 1.719-3.746 1.719-2.118 0-3.807-1.475-4.114-4.207h10.194c.031-.491.031-.983.031-1.197 0-4.882-2.334-8.567-6.755-8.567-3.992 0-6.94 3.501-6.94 8.383v.245c0 5.097 3.255 8.291 7.43 8.291m-15.32-.031c3.131 0 5.557-1.75 5.557-4.945v-.03c0-2.549-1.904-3.716-4.422-4.851-1.902-.86-3.193-1.412-3.193-2.488v-.06c0-.892.768-1.597 2.057-1.597 1.29 0 2.641.614 3.869 1.443l1.474-2.548c-1.535-1.107-3.47-1.75-5.281-1.75-3.04 0-5.373 1.841-5.373 4.758v.062c0 2.672 2.026 3.776 4.452 4.82 1.935.83 3.193 1.352 3.193 2.519v.031c0 1.013-.829 1.78-2.272 1.78-1.443 0-3.009-.707-4.482-1.903l-1.63 2.486c1.874 1.567 4.116 2.273 6.05 2.273m-16.55 0c2.211 0 3.501-1.229 4.422-2.671v2.363h3.5V40.593h-3.5v9.856c0 2.241-1.259 3.593-3.07 3.593-1.812 0-2.887-1.26-2.887-3.531v-9.918h-3.469v10.901c0 3.5 1.842 5.68 5.004 5.68M199.948 38.72h3.44v-3.408h-3.44v3.408zm5.342 0h3.439v-3.408h-3.439v3.408zm-1.75 15.843c-1.504-.03-2.64-.952-2.64-2.579v-.061c0-1.719 1.166-2.733 3.162-2.733 1.167 0 2.211.246 3.01.583V51.4c0 1.844-1.536 3.195-3.532 3.163m-1.044 2.61c2.12 0 3.562-.92 4.514-2.302v1.995h3.408V46.765c0-2.028-.552-3.623-1.627-4.698-1.044-1.076-2.67-1.659-4.79-1.659-2.18 0-3.808.523-5.374 1.29l.983 2.764c1.075-.491 2.364-.983 3.93-.983 2.211 0 3.501 1.136 3.501 3.317v.675c-1.106-.368-2.21-.646-3.746-.646-3.439 0-5.773 1.72-5.773 5.22v.154c0 3.162 2.272 4.975 4.974 4.975m-20.756-.308h3.47v-9.855c0-2.242 1.26-3.593 3.07-3.593 1.842 0 2.917 1.259 2.917 3.53v9.918h3.47v-10.9c0-3.469-1.873-5.68-5.005-5.68-2.21 0-3.53 1.259-4.452 2.701v-8.29h-3.47v22.17zm-16.703 0h3.47v-9.855c0-2.242 1.258-3.593 3.07-3.593 1.842 0 2.917 1.259 2.917 3.53v9.918h3.47v-10.9c0-3.469-1.874-5.68-5.005-5.68-2.211 0-3.532 1.259-4.453 2.701v-2.394h-3.469v16.273zm-16.704 0h3.47v-9.855c0-2.242 1.259-3.593 3.071-3.593 1.842 0 2.917 1.259 2.917 3.53v9.918h3.47v-10.9c0-3.469-1.874-5.68-5.006-5.68-2.21 0-3.53 1.259-4.452 2.701v-8.29h-3.47v22.17zm-10.654-2.7c-2.364 0-4.053-2.305-4.053-5.345v-.183c0-3.04 1.566-5.282 3.991-5.282 2.365 0 4.054 2.273 4.054 5.313v.184c0 3.04-1.566 5.312-3.992 5.312m-.062 3.04c4.33 0 7.523-3.531 7.523-8.321v-.278c0-4.819-3.162-8.32-7.46-8.32-4.33 0-7.524 3.562-7.524 8.352v.276c0 4.82 3.163 8.291 7.461 8.291m-29.477-.216h3.224l4.391-15.169 4.391 15.17h3.224l6.264-21.617h-3.685l-4.206 15.599-4.39-15.66h-3.072l-4.39 15.66-4.207-15.599h-3.777l6.233 21.616zm-24.133-.123h3.47v-7.184c0-3.715 1.903-5.558 4.728-5.558h.153v-3.776c-2.456-.123-4.022 1.32-4.882 3.44v-3.195h-3.469v16.273zM70.62 47.654c.245-2.762 1.596-4.45 3.5-4.45 2.026 0 3.193 1.871 3.378 4.45H70.62zm3.991 9.551c2.426 0 4.238-.952 5.711-2.518l-1.81-2.149c-1.076 1.044-2.212 1.719-3.747 1.719-2.119 0-3.808-1.475-4.115-4.207h10.194c.031-.491.031-.983.031-1.197 0-4.882-2.334-8.567-6.755-8.567-3.992 0-6.939 3.501-6.939 8.383v.245c0 5.097 3.254 8.291 7.43 8.291m-17.93-4.546c-2.089 0-3.747-1.78-3.747-4.667v-.03c0-2.887 1.627-4.637 3.746-4.637 2.088 0 3.9 1.781 3.9 4.637v.061c0 2.826-1.812 4.636-3.9 4.636m-.399 8.905c2.58 0 4.575-.614 5.864-1.934 1.198-1.197 1.843-2.979 1.843-5.404V40.593h-3.47v2.426c-1.044-1.444-2.487-2.733-4.882-2.733-3.224 0-6.203 2.61-6.203 7.646v.123c0 5.005 2.948 7.614 6.203 7.614 2.364 0 3.777-1.258 4.913-2.856v1.567c0 2.886-1.566 4.299-4.422 4.299-1.75 0-3.47-.523-4.882-1.382l-1.136 2.732c1.873 1.014 3.93 1.535 6.172 1.535m-13.756-4.698h3.47V40.593h-3.47v16.273zm-.123-18.637h3.685V34.82h-3.685v3.409zm-7.645 18.637h3.47V34.697h-3.47v22.17zm-7.768 0h3.47V34.697h-3.47v22.17zm-7.768 0h3.47V40.593h-3.47v16.273zm-.123-18.637h3.685V34.82h-3.685v3.409zM8.505 54.103c-2.088 0-3.869-2.027-3.869-5.22v-.307c0-3.193 1.781-5.22 3.87-5.22 2.087 0 3.776 1.997 3.776 5.25v.278c0 3.254-1.658 5.219-3.777 5.219m.952 3.07c3.285 0 6.325-2.762 6.325-8.229v-.43c0-5.495-3.07-8.228-6.325-8.228-2.334 0-3.746 1.35-4.759 2.917v-8.506h-3.47v22.17h3.47V54.41c.982 1.443 2.395 2.763 4.759 2.763M426.608 18.116c-2.088 0-3.746-1.78-3.746-4.667v-.03c0-2.887 1.628-4.637 3.746-4.637 2.088 0 3.9 1.78 3.9 4.637v.06c0 2.826-1.812 4.637-3.9 4.637m-.399 8.905c2.58 0 4.575-.614 5.865-1.935 1.197-1.197 1.842-2.978 1.842-5.404V6.049h-3.47v2.426c-1.044-1.443-2.487-2.733-4.882-2.733-3.224 0-6.202 2.61-6.202 7.646v.123c0 5.005 2.948 7.615 6.202 7.615 2.365 0 3.777-1.259 4.913-2.856v1.566c0 2.886-1.566 4.299-4.421 4.299a9.511 9.511 0 0 1-4.883-1.382l-1.136 2.732c1.873 1.014 3.93 1.536 6.172 1.536m-22.875-4.699h3.47v-9.855c0-2.242 1.259-3.593 3.07-3.593 1.843 0 2.917 1.259 2.917 3.53v9.918h3.47v-10.9c0-3.469-1.873-5.68-5.005-5.68-2.211 0-3.531 1.259-4.452 2.701V6.05h-3.47v16.273zm-11.852.308c2.211 0 3.501-1.229 4.422-2.671v2.363h3.5V6.05h-3.5v9.856c0 2.241-1.26 3.593-3.071 3.593-1.81 0-2.886-1.26-2.886-3.531V6.049h-3.47V16.95c0 3.5 1.843 5.68 5.005 5.68m-12.435-.308h3.47V.153h-3.47v22.17zm-7.768 0h3.47V.153h-3.47v22.17zm-13.571-9.212c.245-2.762 1.596-4.45 3.5-4.45 2.026 0 3.193 1.872 3.378 4.45h-6.878zm3.991 9.551c2.426 0 4.238-.952 5.711-2.518l-1.811-2.149c-1.075 1.044-2.211 1.719-3.747 1.719-2.118 0-3.807-1.475-4.114-4.207h10.194c.03-.491.03-.982.03-1.197 0-4.882-2.333-8.567-6.754-8.567-3.992 0-6.94 3.501-6.94 8.383v.245c0 5.097 3.255 8.291 7.431 8.291m-12.343-.093c1.166 0 2.088-.276 2.886-.707v-2.854a3.94 3.94 0 0 1-1.873.46c-1.105 0-1.75-.523-1.75-1.78v-8.66h3.654V6.05h-3.654v-4.39h-3.47v4.39h-1.78v2.978h1.78v9.366c0 3.162 1.812 4.175 4.207 4.175m-13.265.062c3.132 0 5.558-1.75 5.558-4.943v-.032c0-2.549-1.904-3.714-4.422-4.851-1.903-.86-3.193-1.412-3.193-2.488v-.06c0-.89.768-1.597 2.057-1.597 1.29 0 2.641.614 3.869 1.443l1.474-2.548c-1.535-1.107-3.47-1.75-5.28-1.75-3.04 0-5.375 1.842-5.375 4.759v.061c0 2.672 2.027 3.776 4.453 4.82 1.934.83 3.193 1.352 3.193 2.519v.031c0 1.013-.83 1.78-2.272 1.78-1.443 0-3.01-.707-4.483-1.903l-1.628 2.487c1.873 1.566 4.115 2.272 6.049 2.272m-15.72-.308h3.469v-7.184c0-3.715 1.904-5.558 4.73-5.558h.152V5.804c-2.456-.123-4.022 1.32-4.882 3.44V6.048h-3.47v16.273zm-17.072 0h13.694V19.1H306.83V13.11h8.873V9.887h-8.873V4.053h10.01V.829h-13.541v21.493zm-19.344 0h3.47v-7.184c0-3.715 1.903-5.558 4.728-5.558h.154V5.804c-2.457-.123-4.023 1.32-4.882 3.44V6.048h-3.47v16.273zm-11.853.308c2.212 0 3.5-1.229 4.423-2.671v2.363h3.5V6.05h-3.5v9.856c0 2.241-1.26 3.593-3.07 3.593-1.813 0-2.887-1.26-2.887-3.531V6.049h-3.47V16.95c0 3.5 1.842 5.68 5.004 5.68m-2.947-18.454h3.439V.768h-3.439v3.408zm5.343 0h3.438V.768h-3.438v3.408zm-16.611 18.146h3.47V9.027h3.561V6.141h-3.592V5.22c0-1.535.675-2.241 1.934-2.241.614 0 1.136.123 1.69.276V.338C264.272.123 263.535 0 262.491 0c-1.473 0-2.61.4-3.408 1.167-.798.799-1.197 2.057-1.197 3.715V6.14h-1.812v2.886h1.812v13.295zm-14.707.246c1.166 0 2.088-.276 2.886-.707v-2.854a3.942 3.942 0 0 1-1.873.46c-1.106 0-1.75-.523-1.75-1.78v-8.66h3.653V6.05h-3.653v-4.39h-3.47v4.39h-1.782v2.978h1.782v9.366c0 3.162 1.812 4.175 4.207 4.175m-14.247-.246h3.47V9.027h3.56V6.141h-3.592V5.22c0-1.535.676-2.241 1.936-2.241.613 0 1.134.123 1.688.276V.338C235.318.123 234.582 0 233.538 0c-1.474 0-2.61.4-3.408 1.167-.798.799-1.197 2.057-1.197 3.715V6.14h-1.812v2.886h1.812v13.295zm-11.361-2.302c-1.505-.032-2.64-.953-2.64-2.58v-.061c0-1.719 1.166-2.733 3.162-2.733 1.167 0 2.211.246 3.009.583v1.629c0 1.842-1.535 3.193-3.531 3.162m-1.044 2.61c2.118 0 3.562-.921 4.514-2.303v1.995h3.408V12.221c0-2.028-.553-3.623-1.628-4.699-1.044-1.075-2.671-1.657-4.79-1.657-2.18 0-3.807.522-5.373 1.29l.983 2.763c1.074-.491 2.364-.982 3.93-.982 2.211 0 3.5 1.135 3.5 3.316v.675c-1.105-.368-2.211-.645-3.746-.645-3.439 0-5.772 1.72-5.772 5.22v.153c0 3.162 2.272 4.975 4.974 4.975m-20.757-.308h3.47v-9.855c0-2.242 1.259-3.593 3.071-3.593 1.842 0 2.917 1.259 2.917 3.53v9.918h3.47v-10.9c0-3.469-1.874-5.68-5.006-5.68-2.21 0-3.53 1.259-4.452 2.701V.153h-3.47v22.17zm-8.197.34c2.487 0 4.114-1.016 5.404-2.458l-1.873-2.304c-.952.953-1.904 1.66-3.316 1.66-2.365 0-4.023-2.12-4.023-5.283v-.152c0-3.071 1.658-5.25 3.93-5.25 1.474 0 2.426.735 3.286 1.627l1.934-2.549c-1.351-1.351-2.886-2.21-5.22-2.21-4.268 0-7.43 3.5-7.43 8.35v.307c0 4.852 3.07 8.261 7.308 8.261m-15.199-.031c3.132 0 5.557-1.75 5.557-4.943v-.032c0-2.549-1.903-3.714-4.42-4.851-1.905-.86-3.194-1.412-3.194-2.488v-.06c0-.89.767-1.597 2.057-1.597s2.64.614 3.87 1.443l1.473-2.548c-1.536-1.107-3.47-1.75-5.282-1.75-3.04 0-5.373 1.842-5.373 4.759v.061c0 2.672 2.026 3.776 4.452 4.82 1.935.83 3.193 1.352 3.193 2.519v.031c0 1.013-.83 1.78-2.272 1.78-1.443 0-3.01-.707-4.483-1.903l-1.627 2.487c1.873 1.566 4.114 2.272 6.049 2.272m-12.282-.308h3.47V.153h-3.47v22.17zm-7.768 0h3.47V.153h-3.47v22.17zm-13.571-9.212c.245-2.762 1.596-4.45 3.5-4.45 2.027 0 3.193 1.872 3.378 4.45h-6.878zm3.991 9.551c2.426 0 4.238-.952 5.712-2.518l-1.812-2.149c-1.075 1.044-2.21 1.719-3.746 1.719-2.12 0-3.807-1.475-4.115-4.207h10.195c.03-.491.03-.982.03-1.197 0-4.882-2.333-8.567-6.755-8.567-3.992 0-6.94 3.501-6.94 8.383v.245c0 5.097 3.256 8.291 7.431 8.291m-15.321-.031c3.132 0 5.557-1.75 5.557-4.943v-.032c0-2.549-1.903-3.714-4.42-4.851-1.905-.86-3.194-1.412-3.194-2.488v-.06c0-.89.767-1.597 2.057-1.597 1.289 0 2.64.614 3.869 1.443l1.474-2.548c-1.536-1.107-3.47-1.75-5.282-1.75-3.04 0-5.373 1.842-5.373 4.759v.061c0 2.672 2.026 3.776 4.452 4.82 1.935.83 3.193 1.352 3.193 2.519v.031c0 1.013-.829 1.78-2.272 1.78-1.443 0-3.009-.707-4.483-1.903l-1.627 2.487c1.873 1.566 4.114 2.272 6.049 2.272m-18.085-9.52c.246-2.762 1.597-4.45 3.5-4.45 2.027 0 3.194 1.872 3.378 4.45h-6.878zm3.992 9.551c2.425 0 4.237-.952 5.711-2.518l-1.812-2.149c-1.074 1.044-2.211 1.719-3.746 1.719-2.118 0-3.807-1.475-4.114-4.207h10.194c.03-.491.03-.982.03-1.197 0-4.882-2.333-8.567-6.755-8.567-3.99 0-6.94 3.501-6.94 8.383v.245c0 5.097 3.256 8.291 7.432 8.291M95.4 18.116c-2.088 0-3.746-1.78-3.746-4.667v-.03c0-2.887 1.628-4.637 3.746-4.637 2.088 0 3.9 1.78 3.9 4.637v.06c0 2.826-1.812 4.637-3.9 4.637M95 27.021c2.58 0 4.575-.614 5.865-1.935 1.197-1.197 1.842-2.978 1.842-5.404V6.049h-3.47v2.426c-1.044-1.443-2.487-2.733-4.882-2.733-3.224 0-6.202 2.61-6.202 7.646v.123c0 5.005 2.948 7.615 6.202 7.615 2.365 0 3.777-1.259 4.913-2.856v1.566c0 2.886-1.566 4.299-4.42 4.299a9.513 9.513 0 0 1-4.884-1.382l-1.136 2.732c1.873 1.014 3.93 1.536 6.172 1.536m-22.875-4.699h3.47v-9.855c0-2.242 1.259-3.593 3.07-3.593 1.843 0 2.917 1.259 2.917 3.53v9.918h3.47v-10.9c0-3.469-1.873-5.68-5.005-5.68-2.211 0-3.53 1.259-4.452 2.701V6.05h-3.47v16.273zM58.738 13.11c.246-2.762 1.597-4.45 3.5-4.45 2.027 0 3.194 1.872 3.378 4.45h-6.878zm3.992 9.551c2.425 0 4.237-.952 5.71-2.518l-1.811-2.149c-1.074 1.044-2.211 1.719-3.746 1.719-2.118 0-3.807-1.475-4.114-4.207h10.194c.031-.491.031-.982.031-1.197 0-4.882-2.334-8.567-6.756-8.567-3.99 0-6.94 3.501-6.94 8.383v.245c0 5.097 3.256 8.291 7.432 8.291m-14.278-.339h3.47V6.05h-3.47v16.273zM48.33 3.685h3.685V.276H48.33v3.409zm-6.11 18.883c1.167 0 2.088-.276 2.887-.707v-2.854a3.94 3.94 0 0 1-1.873.46c-1.106 0-1.751-.523-1.751-1.78v-8.66h3.654V6.05h-3.654v-4.39h-3.469v4.39h-1.781v2.978h1.781v9.366c0 3.162 1.811 4.175 4.206 4.175m-20.296-.246h3.47v-4.697l1.873-2.272 3.93 6.97h4.023l-5.558-9.641 5.404-6.633H30.95l-5.558 7.155V.154h-3.47v22.168zM6.479 14.094l3.07-8.628 3.071 8.628H6.48zM0 22.322h3.592l1.781-5.065h8.352l1.78 5.065h3.716L11.331.707H7.89L0 22.322z"/></svg>