<svg xmlns="http://www.w3.org/2000/svg" xmlns:xlink="http://www.w3.org/1999/xlink" viewBox="0 0 155.905304 37.1283989"><defs><path id="a" d="M0 0h33.833v33.833H0z"/></defs><use xlink:href="#a" overflow="visible"/><clipPath id="b"><use xlink:href="#a" overflow="visible"/></clipPath><g clip-path="url(#b)"><path fill="#9C9C9C" d="M20.967 16.706L33.833 0h-1.9l-12.91 16.706z"/><path fill="#FFF" d="M25.85 24.018c.59 1.65 1.804 5.942 2.287 6.284h-3.189s-.011-.635-.15-1.126a530.91 530.91 0 0 0-1.291-4.202h-5.068l-.796 1.13s.958 2.995 1.016 3.142c.104.263.56 1.056.56 1.056h-3.056s-.08-.457-.11-.648c-.024-.153-.29-.995-.29-.995s-.692.758-.881 1.11c-.19.352-.276.533-.276.533h-2.39s-.08-.457-.11-.648c-.023-.153-.316-1.063-.316-1.063s-.67.813-.86 1.164c-.19.352-.27.547-.27.547H8.293s.668-.635.901-.909c.394-.463 1.863-2.382 1.863-2.382l-.588-2.037H5.44s-2.867 3.768-2.98 3.884c-.113.114-.95 1.315-.969 1.444H0v-.948c.028-.03.05-.05.06-.058.044-.033 2.172-2.674 4.127-5.278 1.756-2.27 3.404-4.48 3.55-4.69.349-.509.854-1.607.854-1.607h2.6s.08 1.01.156 1.257c.067.215 1.65 5.412 1.688 5.469l.876-1.121-1.497-4.608s-.35-.867-.465-.997h3.036s-.023.446.1.825c.123.381.774 2.73.774 2.73s2.072-2.596 2.193-2.783c.227-.312.256-.772.256-.772h2.529s-.463.338-1.274 1.366c-.273.345-2.945 3.74-2.945 3.74s.234.795.347 1.191c.03.114.053.19.053.198 0 .004.058-.068.159-.198.69-.873 3.825-4.986 4.015-5.338.154-.284.38-.607.512-.959h2.468s.057.737.133.94l1.545 5.357zm-3.755-3.892c-.365.78-2.497 3.377-2.497 3.377h3.378s-.655-2.017-.769-2.471c-.09-.363-.066-.828-.066-.884 0-.041-.007-.109-.046-.022zm-12.984 0c-.362.78-2.495 3.377-2.495 3.377h3.38s-.656-2.017-.77-2.471c-.09-.363-.067-.828-.067-.884 0-.041-.008-.109-.048-.022zM14.198 28l.93-1.277c-.086-.092-.61-1.682-.61-1.682l-.899 1.166.58 1.793z"/></g><path fill="#9C9C9C" d="M0 36.472h155.905v.656H0v-.656z"/><g><path d="M49.781 30.303h-2.926l-.626-9.254-5.102 9.254H38.2L36.8 17.748h3.078l.6 9.029 5.078-9.029h3.076l.625 9.003 4.828-9.003h2.951l-7.254 12.555zM59.26 30.303h-3.076l2.677-12.555h3.05L59.26 30.303zm2.953-13.756h-3.151l.575-2.652h3.15l-.574 2.652zM75.169 23.2l-1.501 7.103H70.59l1.502-6.952c.122-.576.274-1.4.274-2.052 0-.725-.326-1.351-1.326-1.351-1.576 0-3.102 1.7-3.951 3.303-.426.824-.701 1.85-.9 2.775l-.926 4.277h-3.076l2.674-12.555h3.027l-.474 2.227c.7-.952 2.176-2.603 4.8-2.603 2.178 0 3.328 1.15 3.328 3.003 0 .875-.175 1.825-.374 2.826zM85.225 19.948H82.37L80.97 26.55c-.074.326-.15.805-.124 1.077.05.627.576.876 1.273.876.553 0 1.152-.125 1.628-.224l-.401 1.9c-.498.2-1.55.375-2.4.375-2.051 0-3.228-.851-3.228-2.502 0-.425.1-1.176.227-1.775l1.35-6.33h-2.328l.476-2.199h2.327l.826-3.853h3.076l-.824 3.853h2.877l-.5 2.2zM96.879 24.751h-8.153c-.054.3-.078.65-.078.95 0 1.752 1.153 2.601 3.102 2.601 1.553 0 3.002-.35 4.227-.825l-.5 2.302c-.497.324-2.2.9-4.376.9-4.18 0-5.752-2.225-5.752-5.178 0-4.152 2.798-8.129 7.327-8.129 2.877 0 4.854 1.351 4.854 4.253 0 1.199-.327 2.276-.651 3.126zm-4.354-5.328c-1.873 0-3.076 1.853-3.427 3.252h5.205c.05-.125.275-.625.275-1.45 0-.927-.5-1.802-2.053-1.802zM107.732 20.625c-.124-.026-.35-.076-.775-.076-1.525 0-3.024 1.326-3.727 2.626-.523.976-.775 2.051-.974 3.028l-.876 4.1h-3.075l2.675-12.555h3l-.522 2.475c.674-1.125 2.023-2.525 4.075-2.525.426 0 .701.024.799.05l-.6 2.877zM117.086 19.948h-2.848l-1.402 6.602c-.074.326-.15.805-.125 1.077.05.627.575.876 1.275.876.551 0 1.15-.125 1.626-.224l-.4 1.9c-.5.2-1.55.375-2.4.375-2.054 0-3.226-.851-3.226-2.502 0-.425.099-1.176.223-1.775l1.351-6.33h-2.325l.476-2.199h2.324l.824-3.853h3.08l-.826 3.853h2.877l-.504 2.2zM130.018 23.2l-1.5 7.103h-3.075l1.498-6.928c.13-.575.277-1.399.277-2.05 0-.726-.325-1.35-1.325-1.35-1.58 0-3.103 1.7-3.952 3.302-.427.823-.7 1.85-.9 2.775l-.928 4.251h-3.075l3.452-16.408h3.024l-1.247 6.08c.7-.952 2.35-2.603 4.774-2.603 2.201 0 3.354 1.15 3.354 3.003 0 .875-.176 1.825-.377 2.826zM142.873 30.303h-3.025l.476-2.2c-.902 1.151-2.252 2.575-4.777 2.575-2.201 0-3.354-1.126-3.354-3 0-.874.176-1.827.375-2.827l1.504-7.103h3.074l-1.5 6.977c-.1.401-.273 1.327-.273 2.026 0 .801.299 1.377 1.324 1.377 1.551 0 3.201-1.676 3.979-3.3.449-.953.699-1.802.898-2.778l.9-4.302h3.079l-2.68 12.555zM155.256 20.625c-.125-.026-.352-.076-.777-.076-1.524 0-3.026 1.326-3.725 2.626-.524.976-.775 2.051-.975 3.028l-.879 4.1h-3.072l2.676-12.555h2.998l-.523 2.475c.675-1.125 2.027-2.525 4.078-2.525.425 0 .697.024.8.05l-.601 2.877z"/></g></svg>