<svg xmlns="http://www.w3.org/2000/svg" viewBox="0 0 192.0995941 50.1425972"><path d="M0 14.536l12.851-7.88 13.208 7.88-.004 20.777H0zM29.52 14.559h5.551c2.777 0 6.015 1.43 6.015 5.918 0 2.34-1.273 4.156-3.262 4.156v.055c2.314.22 3.54 1.927 3.54 4.707 0 2.56-1.296 5.918-5.506 5.918H29.52V14.56zm4.997 8.065c.971 0 1.873-.469 1.873-1.817 0-1.239-.717-1.762-1.689-1.762h-.462v3.579h.278zm.115 8.202c1.04 0 1.967-.605 1.967-2.009s-.903-1.982-1.99-1.982h-.37v3.991h.393zM51.19 35.313l-.346-2.67h-3.17l-.393 2.67h-4.858L46.61 14.56h5.76l3.701 20.754h-4.88zm-.902-7.074l-.509-4.817c-.138-1.294-.231-2.615-.346-3.91h-.047c-.139 1.295-.254 2.616-.44 3.91l-.647 4.817h1.989zM57.617 35.313V14.56h4.72v15.855h3.539v4.9h-8.259zM67.84 35.313v-15.69h-2.591v-5.064h10.016v5.064h-2.706v15.69h-4.72zM77.16 14.559h8.767v4.899h-4.05v2.89h3.633v4.9h-3.632v3.166h4.049v4.9h-8.768V14.558zM88.698 14.559h4.489l3.77 12.497.046-.056c-.185-2.395-.532-4.762-.532-7.156v-5.285h4.534v20.754H96.47L92.955 23.34l-.047.055c.116 1.955.324 3.881.324 5.836v6.083h-4.534V14.56zM103.338 28.321c.647 1.156 1.781 2.313 2.984 2.313.648 0 1.388-.468 1.388-1.376 0-.496-.139-.854-.37-1.156-.208-.303-.486-.551-.786-.8-.926-.852-1.736-1.65-2.337-2.642-.578-.963-.949-2.119-.949-3.633 0-2.423 1.296-6.827 5.32-6.827 1.135 0 2.36.413 3.355 1.046v6.304c-.555-1.046-1.688-2.23-2.776-2.23a1.26 1.26 0 0 0-1.226 1.267c0 .44.208.825.463 1.156.254.33.602.606.856.853.995.826 1.781 1.596 2.313 2.533.555.935.856 2.037.856 3.605 0 3.854-2.267 6.937-5.552 6.937-1.202 0-2.429-.303-3.54-.853v-6.497z"/><g fill="#595959"><path d="M114.463 35.176V14.42h4.303c4.118 0 7.287 1.597 7.287 7.047 0 5.394-2.777 7.047-6.87 6.909v6.799h-4.72zm5.066-16.296l-.346.027v4.79c1.294.082 2.104-.77 2.104-2.312 0-1.322-.602-2.505-1.758-2.505zM127.969 14.42h8.767v4.9h-4.048v2.89h3.631v4.9h-3.63v3.166h4.047v4.9h-8.767V14.42zM146.82 35.176l-2.615-8.644-.047.056c.024 1.017.07 2.036.07 3.055v5.533h-4.72V14.42h4.558c4.094 0 7.055 1.43 7.055 6.91 0 2.283-.832 4.32-2.706 5.201l3.516 8.644h-5.112zm-2.292-11.149c1.25 0 1.92-1.294 1.92-2.642 0-1.817-.925-2.588-2.22-2.505V24l.3.027zM166.038 23.174l.023.88c0 5.12-.834 11.48-6.293 11.48-5.134 0-6.8-5.368-6.8-10.626 0-5.147 1.642-10.846 6.755-10.846 2.822 0 4.926 2.12 5.945 5.12l-4.558 2.01c-.046-.826-.508-2.12-1.342-2.12-2.173 0-1.989 4.763-1.989 6.331.07 1.488-.023 5.12 1.805 5.12 1.249 0 1.643-1.761 1.62-2.972h-1.736v-4.377h6.57zM168.139 14.42h8.767v4.9h-4.048v2.89h3.631v4.9h-3.63v3.166h4.047v4.9h-8.767V14.42zM186.987 35.176l-2.613-8.644-.047.056c.023 1.017.07 2.036.07 3.055v5.533h-4.72V14.42h4.558c4.094 0 7.055 1.43 7.055 6.91 0 2.283-.832 4.32-2.706 5.201l3.516 8.644h-5.113zm-2.29-11.149c1.25 0 1.921-1.294 1.921-2.642 0-1.817-.926-2.588-2.22-2.505V24l.3.027z"/></g><g fill="#595959"><path d="M30.967 5.185V3.116h-.564v2.069h-1.186V.088h1.186v1.825h.564V.088h1.186v5.097h-1.186zM37.9 0c1.204 0 1.674 1.393 1.674 2.636 0 1.244-.47 2.636-1.674 2.636s-1.675-1.392-1.675-2.636C36.225 1.393 36.696 0 37.9 0zm0 3.988c.448 0 .465-1.034.465-1.352 0-.318-.017-1.352-.465-1.352s-.465 1.034-.465 1.352c0 .318.017 1.352.465 1.352zM46.05 1.582c-.17-.19-.309-.298-.553-.298-.616 0-.768.791-.768 1.352 0 .595.152 1.352.745 1.352.267 0 .436-.122.627-.324l-.069 1.426a1.485 1.485 0 0 1-.715.182c-.97 0-1.796-.858-1.796-2.602C43.52.385 44.869 0 45.445 0c.21 0 .412.034.605.122v1.46zM52.007 5.185V3.116h-.564v2.069h-1.186V.088h1.186v1.825h.564V.088h1.186v5.097h-1.186zM57.4.088h1.395c.697 0 1.512.351 1.512 1.453 0 .574-.32 1.02-.82 1.02v.014c.581.055.889.474.889 1.156 0 .63-.325 1.454-1.384 1.454H57.4V.088zm1.255 1.98c.244 0 .47-.115.47-.446 0-.304-.179-.433-.423-.433h-.116v.88h.07zm.03 2.015c.261 0 .494-.15.494-.494 0-.345-.227-.487-.5-.487h-.093v.981h.098zM66.352 5.185l-.087-.656h-.797l-.099.656h-1.22L65.2.088h1.447l.931 5.097h-1.226zm-.227-1.738l-.128-1.182c-.035-.319-.059-.643-.088-.96h-.01c-.036.317-.065.641-.112.96l-.162 1.182h.5zM74.418.088V3.42c0 .615-.116 1.852-1.488 1.852-1.372 0-1.489-1.237-1.489-1.852V.088h1.187v3.204c0 .135-.006.31.03.446.033.142.11.25.272.25.169 0 .244-.108.273-.243.035-.143.03-.318.03-.446V.088h1.185z"/></g><g fill="#595959"><path d="M29.518 44.83h1.22c.61 0 1.321.31 1.321 1.285 0 .508-.279.903-.716.903v.012c.508.048.777.42.777 1.023 0 .556-.284 1.286-1.209 1.286h-1.393v-4.51zm1.098 1.751c.214 0 .412-.102.412-.395 0-.268-.158-.382-.37-.382h-.102v.777h.06zm.026 1.783c.228 0 .431-.132.431-.436 0-.306-.198-.432-.436-.432h-.081v.868h.086zM35.812 49.339l-.077-.58h-.696l-.087.58h-1.066l.919-4.51h1.265l.813 4.51h-1.071zm-.199-1.537l-.112-1.047c-.03-.281-.05-.569-.076-.85h-.01c-.03.281-.056.569-.097.85l-.142 1.047h.437zM38.755 49.339v-4.51h1.037v3.445h.777v1.065h-1.814zM42.903 49.339v-3.41h-.568v-1.1h2.2v1.1h-.595v3.41h-1.037zM46.482 44.83h1.926v1.064h-.889v.627h.798v1.065h-.798v.688h.89v1.065h-1.927v-4.51zM50.55 44.83h.986l.828 2.715.01-.013c-.041-.52-.117-1.034-.117-1.555V44.83h.996v4.51h-.996l-.772-2.602-.01.012c.025.425.07.843.07 1.268v1.322h-.995v-4.51zM55.297 47.82c.142.25.391.502.656.502.142 0 .305-.101.305-.299a.386.386 0 0 0-.082-.252.873.873 0 0 0-.172-.172c-.204-.186-.382-.36-.514-.575a1.473 1.473 0 0 1-.208-.79c0-.526.284-1.483 1.168-1.483.25 0 .519.09.738.227v1.37c-.123-.227-.372-.485-.61-.485a.275.275 0 0 0-.27.276c0 .095.046.18.102.25.056.073.132.132.188.186.218.18.391.347.508.551.123.203.188.442.188.783 0 .838-.498 1.508-1.22 1.508a1.79 1.79 0 0 1-.777-.186V47.82zM59.323 49.339v-4.51h.945c.905 0 1.601.347 1.601 1.531 0 1.172-.61 1.532-1.509 1.501v1.478h-1.037zm1.113-3.541l-.076.006v1.04c.284.018.462-.167.462-.502 0-.287-.132-.544-.386-.544zM63.822 44.83h1.926v1.064h-.889v.627h.798v1.065h-.798v.688h.889v1.065h-1.926v-4.51zM69.495 49.339l-.574-1.878-.01.012c.005.221.016.442.016.664v1.202H67.89v-4.51h1c.9 0 1.55.31 1.55 1.501 0 .496-.182.94-.594 1.13l.772 1.879h-1.123zm-.503-2.423c.275 0 .422-.281.422-.574 0-.395-.203-.562-.487-.544v1.112l.065.006zM75.249 46.73l.006.192c0 1.113-.184 2.495-1.383 2.495-1.128 0-1.493-1.167-1.493-2.31 0-1.118.36-2.356 1.483-2.356.62 0 1.082.46 1.306 1.112l-1.001.438c-.01-.18-.111-.461-.295-.461-.477 0-.436 1.035-.436 1.376.015.322-.005 1.112.396 1.112.274 0 .36-.383.355-.646h-.38v-.952h1.442zM77.242 44.83h1.926v1.064h-.889v.627h.798v1.065h-.798v.688h.889v1.065h-1.926v-4.51zM82.915 49.339l-.574-1.878-.01.012c.005.221.016.442.016.664v1.202H81.31v-4.51h1c.9 0 1.55.31 1.55 1.501 0 .496-.182.94-.594 1.13l.772 1.879h-1.123zm-.503-2.423c.275 0 .422-.281.422-.574 0-.395-.203-.562-.487-.544v1.112l.065.006zM90.639 49.339l-.076-.58h-.697l-.087.58h-1.066l.919-4.51h1.265l.813 4.51h-1.071zm-.199-1.537l-.112-1.047c-.03-.281-.05-.569-.076-.85h-.01c-.03.281-.055.569-.096.85l-.143 1.047h.437zM96.34 46.73l.007.192c0 1.113-.184 2.495-1.383 2.495-1.128 0-1.493-1.167-1.493-2.31 0-1.118.36-2.356 1.483-2.356.62 0 1.082.46 1.306 1.112l-1.001.438c-.01-.18-.112-.461-.295-.461-.478 0-.437 1.035-.437 1.376.016.322-.005 1.112.397 1.112.274 0 .36-.383.355-.646h-.38v-.952h1.442z"/></g><g><path d="M108.48 47.905c.15.251.412.503.692.503.15 0 .322-.101.322-.299a.378.378 0 0 0-.086-.252.884.884 0 0 0-.183-.172c-.214-.186-.402-.36-.542-.575a1.417 1.417 0 0 1-.22-.79c0-.526.3-1.483 1.235-1.483.264 0 .548.09.78.227v1.37c-.13-.227-.393-.485-.645-.485-.129 0-.285.102-.285.276 0 .095.049.18.107.25.059.073.14.132.2.186.23.18.412.347.537.55.129.204.198.443.198.784 0 .838-.527 1.508-1.29 1.508-.279 0-.563-.067-.82-.186v-1.412zM112.742 44.915h2.036v1.064h-.94v.628h.843v1.065h-.843v.688h.94v1.065h-2.036v-4.51zM119.772 44.915v2.948c0 .545-.107 1.64-1.375 1.64s-1.375-1.095-1.375-1.64v-2.948h1.096v2.835c0 .12-.006.275.027.394.032.126.102.222.252.222.156 0 .225-.096.252-.216.033-.125.028-.28.028-.394v-2.841h1.095zM121.817 49.425l1.108-2.865c.074-.198.198-.414.31-.617-.214.012-.456.036-.692.036h-.484v-1.064h2.68l-1.197 3.086c-.054.143-.118.275-.172.413.2-.018.402-.054.612-.054h.623v1.065h-2.788zM128.567 49.425l-.08-.58h-.736l-.09.58h-1.129l.973-4.51h1.337l.86 4.51h-1.135zm-.209-1.537l-.118-1.047c-.032-.281-.054-.569-.08-.85h-.01c-.034.281-.06.569-.103.85l-.15 1.047h.461zM133.907 46.236c-.156-.167-.285-.262-.51-.262-.57 0-.71.7-.71 1.196 0 .526.14 1.196.688 1.196.247 0 .403-.107.58-.287l-.064 1.262c-.22.108-.42.162-.662.162-.896 0-1.659-.76-1.659-2.304 0-2.021 1.246-2.362 1.779-2.362.193 0 .38.03.558.107v1.292zM137.8 49.425v-1.83h-.522v1.83h-1.095v-4.51h1.095v1.614h.522v-1.614h1.095v4.51H137.8zM141.268 50.143l2.036-5.486h.677l-2.036 5.486h-.677zM148.73 49.425l-.296-1.83c-.06-.366-.076-.683-.113-.993h-.012c-.026.31-.037.627-.085.993l-.23 1.83h-1.064l-.903-4.51h1.08l.242 1.818c.043.335.075.664.113 1h.01c.033-.336.038-.665.091-1l.286-1.818h.939l.28 1.818c.048.33.08.652.122.98h.012c.031-.28.043-.627.09-.98l.242-1.818h1.07l-.817 4.51h-1.058zM152.554 49.425v-4.51h1.095v4.51h-1.095zM155.919 44.915h1.042l.876 2.716.01-.013c-.043-.52-.123-1.034-.123-1.555v-1.148h1.052v4.51h-1.052l-.817-2.602-.01.012c.026.425.075.843.075 1.267v1.323h-1.053v-4.51zM161.45 49.425v-3.41h-.601v-1.1h2.326v1.1h-.63v3.41h-1.095zM165.241 44.915h2.035v1.064h-.94v.628h.845v1.065h-.844v.688h.94v1.065h-2.036v-4.51zM171.245 49.425l-.607-1.878-.01.012c.005.221.015.442.015.664v1.202h-1.095v-4.51h1.058c.95 0 1.638.31 1.638 1.501 0 .496-.193.94-.628 1.13l.817 1.879h-1.188zm-.531-2.423c.289 0 .445-.281.445-.574 0-.395-.215-.562-.516-.544v1.112l.07.006zM174.821 49.425v-3.41h-.601v-1.1h2.326v1.1h-.63v3.41h-1.095zM180.23 49.425v-1.83h-.522v1.83h-1.096v-4.51h1.096v1.614h.521v-1.614h1.096v4.51h-1.096zM186.325 44.915v2.948c0 .545-.107 1.64-1.375 1.64-1.267 0-1.375-1.095-1.375-1.64v-2.948h1.096v2.835c0 .12-.006.275.026.394.032.126.103.222.253.222.155 0 .225-.096.252-.216.032-.125.027-.28.027-.394v-2.841h1.096zM190.267 49.425l-.608-1.878-.01.012c.005.221.016.442.016.664v1.202h-1.096v-4.51h1.059c.95 0 1.638.31 1.638 1.501 0 .496-.194.94-.628 1.13l.816 1.879h-1.187zm-.532-2.423c.29 0 .446-.281.446-.574 0-.395-.215-.562-.516-.544v1.112l.07.006z"/></g><g><path d="M86.794 5.185V1.332h-.652V.088h2.518v1.244h-.68v3.853h-1.186zM92.64 5.185V.088h1.187v5.097h-1.186zM98.03.088h2.203V1.29h-1.016v.71h.912v1.203h-.912v.777h1.016v1.204H98.03V.088zM104.436 5.185V.088h2.092V1.29h-.906v.736h.849v1.204h-.849v1.954h-1.186zM110.736.088h1.396c.697 0 1.511.351 1.511 1.453 0 .574-.32 1.02-.82 1.02v.014c.582.055.89.474.89 1.156 0 .63-.325 1.454-1.384 1.454h-1.593V.088zm1.256 1.98c.244 0 .47-.115.47-.446 0-.304-.179-.433-.423-.433h-.116v.88h.07zm.03 2.015c.261 0 .494-.15.494-.494 0-.345-.227-.487-.5-.487h-.093v.981h.098zM119.688 5.185l-.088-.656h-.796l-.099.656h-1.22l1.051-5.097h1.447l.931 5.097h-1.227zm-.227-1.738l-.128-1.182c-.035-.319-.059-.643-.088-.96h-.01c-.036.317-.065.641-.112.96l-.162 1.182h.5zM127.755.088V3.42c0 .615-.116 1.852-1.488 1.852-1.373 0-1.489-1.237-1.489-1.852V.088h1.187v3.204c0 .135-.006.31.03.446.033.142.11.25.272.25.168 0 .244-.108.273-.243.035-.143.03-.318.03-.446V.088h1.185z"/></g><g fill="#595959"><path d="M139.743 5.185V3.116h-.55v2.069h-1.158V.088h1.157v1.825h.551V.088h1.158v5.097h-1.158zM148.23 0c1.174 0 1.634 1.393 1.634 2.636 0 1.244-.46 2.636-1.635 2.636-1.174 0-1.634-1.392-1.634-2.636 0-1.243.46-2.636 1.634-2.636zm0 3.988c.437 0 .454-1.034.454-1.352 0-.318-.017-1.352-.455-1.352s-.454 1.034-.454 1.352c0 .318.017 1.352.454 1.352zM155.557 5.185V.088h1.157V3.98h.869v1.204h-2.026zM162.981 5.185l1.17-3.239c.078-.222.21-.466.328-.696-.226.014-.482.041-.732.041h-.51V.088h2.832l-1.265 3.488c-.058.162-.125.31-.182.466.21-.02.425-.06.646-.06h.659v1.203h-2.946zM171.678.088h1.362c.68 0 1.476.351 1.476 1.453 0 .574-.313 1.02-.801 1.02v.014c.568.055.869.474.869 1.156 0 .63-.318 1.454-1.352 1.454h-1.554V.088zm1.225 1.98c.239 0 .46-.115.46-.446 0-.304-.175-.433-.414-.433h-.114v.88h.068zm.029 2.015c.256 0 .482-.15.482-.494 0-.345-.22-.487-.487-.487h-.092v.981h.097zM182.132 5.185l-.085-.656h-.777l-.097.656h-1.192L181.01.088h1.413l.908 5.097h-1.198zm-.22-1.738l-.126-1.182c-.034-.319-.057-.643-.085-.96h-.012c-.034.317-.062.641-.107.96l-.16 1.182h.49zM191.725.088V3.42c0 .615-.114 1.852-1.453 1.852-1.34 0-1.453-1.237-1.453-1.852V.088h1.158v3.204c0 .135-.005.31.028.446.034.142.108.25.267.25.164 0 .239-.108.267-.243.034-.143.028-.318.028-.446V.088h1.158z"/></g><path fill="#595959" d="M13.414 34.362c5.249 0 9.442-3.998 9.442-8.918 0-4.92-4.215-9.091-9.464-9.091-5.249 0-9.545 4.172-9.545 9.091 0 4.92 4.318 8.918 9.567 8.918"/><path fill="#595959" d="M11.768 8.854v7.24l.845.065 1.591.162-.292 12.11-1.299 5.91-11.363.02-.065-19.21z"/></svg>