<svg xmlns="http://www.w3.org/2000/svg" viewBox="0 0 202.6000061 37.8841553"><path d="M3.98 8.567h2.144c.55 0 2.225 0 2.225 1.777 0 1.714-1.634 1.714-2.102 1.714H3.98v-3.49zM0 14.752h6.512c1.326 0 2.817 0 3.98-.613 1.613-.856 2.041-2.203 2.041-3.346 0-3.022-2.633-3.491-3.552-3.655v-.04c.736-.184 3.145-.735 3.145-3.348 0-1.306-.655-2.102-1.123-2.532C9.655.014 7.757.014 5.899.014H0v14.738M3.96 2.688h2.225c.429 0 .878 0 1.327.348.408.326.572.857.572 1.306 0 .633-.307 1.163-.776 1.429-.347.184-.776.184-1.43.184H3.96V2.688M13.492 14.752h4.102V8.996h1.716c1.836 0 1.898.653 2.081 2.43.144 1.306.246 2.429.49 3.326h4.43c-.347-1.041-.552-2.633-.694-3.633-.326-2.266-.49-3.532-3.349-3.613v-.081c.41-.062 1.308-.164 2.246-.756.695-.429 1.348-1.123 1.348-2.735 0-1.593-.571-2.41-1.021-2.858C23.964.178 22.964.014 20.31.014h-6.818v14.738zM17.594 2.73h1.532c1.184 0 2.776 0 2.776 1.817 0 .47-.183 1.388-1.082 1.674-.347.122-.797.122-1.694.122h-1.532V2.73M31.149.014v8.757c0 .797.057 1.613.45 2.226.53.816 1.45 1.204 2.41 1.204 2.49 0 2.823-2.103 2.823-3.572V.014h3.82v8.533c0 1.633-.214 3.41-1.097 4.491-1.371 1.755-3.9 2.102-5.682 2.102-6.683 0-6.703-4.327-6.703-6.736l.02-8.39h3.959zM42.455.014h5.41l4.78 10.983-.04-10.983h3.43v14.738h-5.29l-4.88-11.45.04 11.45h-3.45V.014zM57.819.014h5.408l4.781 10.983L67.97.014h3.43v14.738h-5.292L61.23 3.302l.038 11.45H57.82V.014zM73.222.055h10.62v2.817h-6.741v3.062h6.35v2.817H77.1v3.144H84v2.857H73.222V.055zM85.216 14.752h4.102V8.996h1.715c1.837 0 1.9.653 2.082 2.43.144 1.306.246 2.429.49 3.326h4.43c-.347-1.041-.552-2.633-.695-3.633-.325-2.266-.489-3.532-3.348-3.613v-.081c.41-.062 1.308-.164 2.246-.756.695-.429 1.348-1.123 1.348-2.735 0-1.593-.571-2.41-1.021-2.858C95.687.178 94.687.014 92.034.014h-6.818v14.738zM89.318 2.73h1.532c1.184 0 2.776 0 2.776 1.817 0 .47-.183 1.388-1.082 1.674-.347.122-.797.122-1.694.122h-1.532V2.73M105.343 14.752h4.104V9.445l2.653-.02c.797 0 2.571 0 3.715-.633.572-.306 2.225-1.429 2.225-4.021 0-1.92-.836-3.246-2.083-4.001-1.204-.756-2.694-.756-3.837-.756h-6.777v14.738zm4.104-12.002h1.795c1.184 0 2.634.102 2.634 1.898 0 1.98-1.612 1.98-2.614 1.98h-1.815V2.75M115.589 14.752h4.082l1-2.96h5.9l1.02 2.96h4.613L126.387.014h-4.981l-5.817 14.738zm6.042-5.675l2.04-6.184h.062l1.898 6.184h-4M133.242 14.752h4.103V8.996h1.715c1.836 0 1.897.653 2.081 2.43.144 1.306.246 2.429.49 3.326h4.43c-.347-1.041-.552-2.633-.694-3.633-.327-2.266-.49-3.532-3.348-3.613v-.081c.41-.062 1.306-.164 2.245-.756.694-.429 1.347-1.123 1.347-2.735 0-1.593-.57-2.41-1.02-2.858-.877-.898-1.878-1.062-4.532-1.062h-6.817v14.738zm4.103-12.023h1.53c1.184 0 2.777 0 2.777 1.817 0 .47-.184 1.388-1.082 1.674-.347.122-.797.122-1.694.122h-1.531V2.73M147.693.014h4.143v6.472L156.55.014h4.838l-5.083 6.492 5.491 8.246h-5.062l-4.9-7.838v7.838h-4.142V.014zM162.893.04h11.065v2.818h-7.022V5.92h6.613v2.817h-6.613v3.143h7.185v2.859h-11.228V.04zM179.387 2.919h-4.49V0h13.207v2.919h-4.593v11.82h-4.124V2.919zM192.595 2.919h-4.491V0h13.206v2.919h-4.592v11.82h-4.123V2.919zM5.377 37.884a7.578 7.578 0 0 1-2.12-.287 5.82 5.82 0 0 1-1.715-.795A3.899 3.899 0 0 1 .407 35.62 2.787 2.787 0 0 1 0 34.151c0-.309.054-.596.16-.86a2.129 2.129 0 0 1 1.136-1.172 2.13 2.13 0 0 1 1.67-.011c.265.111.547.291.847.542.257.205.464.368.622.485.157.119.285.21.385.276.1.066.186.108.257.122.071.015.15.022.236.022a.564.564 0 0 0 .44-.177.663.663 0 0 0 .16-.463c0-.25-.121-.457-.364-.618a1.667 1.667 0 0 1-.097-.056 1.58 1.58 0 0 0-.15-.078 7.87 7.87 0 0 0-.257-.11 41.839 41.839 0 0 0-.44-.176c-.2-.074-.392-.144-.577-.21a59.87 59.87 0 0 1-.579-.21C1.378 30.706.343 29.307.343 27.26c0-.72.128-1.376.385-1.965A4.552 4.552 0 0 1 1.8 23.77a4.789 4.789 0 0 1 1.66-.994 6.22 6.22 0 0 1 2.132-.353 6.16 6.16 0 0 1 1.799.254c.557.169 1.043.397 1.457.684s.739.626.975 1.016c.235.39.353.814.353 1.27 0 .59-.171 1.071-.514 1.447-.343.375-.786.563-1.328.563-.329 0-.636-.062-.921-.188-.286-.125-.629-.342-1.029-.651a3.471 3.471 0 0 0-.578-.42.892.892 0 0 0-.407-.11.531.531 0 0 0-.397.165.566.566 0 0 0-.16.409c0 .22.096.397.289.53.193.133.568.295 1.125.486.614.191 1.192.423 1.735.696.542.272.978.555 1.307.85.442.383.792.88 1.05 1.49.257.612.385 1.27.385 1.977 0 .663-.118 1.3-.353 1.91a4.868 4.868 0 0 1-.997 1.602c-.485.5-1.053.872-1.703 1.116-.65.243-1.417.364-2.303.364zM18.382 32.958c.514 0 .91.041 1.189.122a2.207 2.207 0 0 1 1.553 2.154c0 .338-.068.666-.204.983a2.093 2.093 0 0 1-.568.784 1.711 1.711 0 0 1-.75.409c-.142.036-.31.062-.503.077a9.276 9.276 0 0 1-.696.021H14.74c-.543 0-.93-.014-1.157-.044a2.923 2.923 0 0 1-.643-.154c-.757-.324-1.207-.913-1.35-1.767a18.938 18.938 0 0 0-.043-.21 1.81 1.81 0 0 1-.032-.254 5.578 5.578 0 0 1-.01-.375V26.09c0-.31.003-.56.01-.75.007-.192.018-.35.032-.476.014-.125.036-.232.064-.32.029-.089.065-.191.108-.31.1-.28.253-.522.46-.728.207-.206.432-.368.675-.486.129-.059.243-.103.343-.133.1-.029.217-.05.353-.066.136-.014.307-.025.514-.033.207-.007.483-.011.825-.011h3.643c.2 0 .356.007.47.022.115.015.208.03.28.044.07.015.15.03.235.044.5.133.896.39 1.189.773.292.384.439.832.439 1.348 0 .353-.068.688-.204 1.005a2.087 2.087 0 0 1-.567.784 1.89 1.89 0 0 1-.729.408c-.271.081-.628.122-1.07.122h-2.357v1.016h1.864c.585 0 1.05.162 1.392.485.343.325.514.744.514 1.26 0 .574-.207 1.037-.621 1.391a1.539 1.539 0 0 1-.59.298c-.206.052-.496.077-.867.077h-1.692v1.104h2.164zM29.025 24.5c.404-1.222 1.176-1.833 2.316-1.833s1.926.633 2.359 1.899l1.342 3.91 1.58-4.13c.202-.516.512-.925.93-1.227a2.35 2.35 0 0 1 1.408-.452c.331 0 .642.062.93.187.289.126.541.295.758.508.216.214.386.468.509.762.122.295.184.611.184.95 0 .147-.018.302-.055.464a5.04 5.04 0 0 1-.227.684l-3.42 9.497c-.447 1.267-1.212 1.9-2.294 1.9-1.125 0-1.897-.618-2.316-1.855l-1.601-4.837-1.58 4.815c-.405 1.251-1.162 1.877-2.273 1.877-1.097 0-1.848-.56-2.251-1.679l-3.68-9.828a3.959 3.959 0 0 1-.205-.63 2.3 2.3 0 0 1-.076-.496c0-.324.065-.626.195-.906s.303-.522.519-.729c.217-.206.469-.371.757-.497.289-.125.599-.187.931-.187 1.111 0 1.927.655 2.446 1.965l1.537 3.733 1.277-3.865zM46.388 34.814c0 .471-.046.858-.139 1.16a2.311 2.311 0 0 1-.46.828c-.229.25-.5.449-.815.596-.314.147-.628.22-.942.22-.329 0-.654-.07-.975-.209a2.105 2.105 0 0 1-.782-.563 2.055 2.055 0 0 1-.471-.817c-.086-.295-.129-.7-.129-1.215v-9.122c0-.309.007-.574.022-.795.014-.22.042-.412.085-.574.043-.162.104-.313.183-.453.078-.14.182-.276.31-.408.443-.53 1.021-.795 1.735-.795.714 0 1.3.257 1.757.773.243.28.407.574.493.883.086.31.128.766.128 1.37v9.121zM49.195 27.305c-.414 0-.76-.052-1.039-.155a1.979 1.979 0 0 1-.739-.486c-.443-.486-.664-1.023-.664-1.612 0-.427.118-.832.353-1.215.236-.383.525-.655.868-.817a2.66 2.66 0 0 1 .343-.133c.1-.029.235-.05.407-.066.171-.014.396-.025.675-.033a46.19 46.19 0 0 1 1.125-.011h5.955c.1 0 .175.004.225.01l.182.034c.571.074 1.036.317 1.393.729s.535.905.535 1.48c0 .324-.068.64-.203.95-.136.309-.325.574-.568.795-.371.353-.978.53-1.82.53h-1.05v7.333c0 .44-.03.802-.086 1.081-.058.28-.165.545-.322.796-.214.353-.49.625-.825.817-.335.19-.71.287-1.124.287-.4 0-.768-.088-1.103-.265a2.376 2.376 0 0 1-.847-.751 2.384 2.384 0 0 1-.321-.773c-.058-.265-.086-.648-.086-1.149v-7.376h-1.264zM66.266 32.958c.52 0 .92.041 1.202.122.28.081.544.225.79.43.519.458.779 1.032.779 1.723 0 .34-.069.667-.206.984a2.096 2.096 0 0 1-.573.784 1.747 1.747 0 0 1-.758.409 2.972 2.972 0 0 1-.508.077c-.195.014-.43.021-.704.021h-3.701c-.549 0-.938-.014-1.169-.044a2.975 2.975 0 0 1-.65-.154c-.764-.324-1.219-.913-1.363-1.767l-.043-.21a1.81 1.81 0 0 1-.033-.254 5.333 5.333 0 0 1-.01-.375V26.09c0-.31.003-.56.01-.75.007-.192.018-.35.033-.476.014-.125.036-.232.065-.32.028-.089.065-.191.108-.31.1-.28.256-.522.465-.728.21-.206.436-.368.682-.486a2.69 2.69 0 0 1 .347-.133c.1-.029.22-.05.356-.066a7.84 7.84 0 0 1 .52-.033c.209-.007.487-.011.833-.011h3.68c.202 0 .36.007.476.022.115.015.21.03.281.044.072.015.152.03.239.044.504.133.905.39 1.2.773.296.384.444.832.444 1.348 0 .353-.068.688-.205 1.005a2.086 2.086 0 0 1-.574.784 1.913 1.913 0 0 1-.736.408c-.274.081-.635.122-1.082.122h-2.38v1.016h1.882c.592 0 1.06.162 1.407.485.346.325.52.744.52 1.26 0 .574-.21 1.037-.628 1.391a1.56 1.56 0 0 1-.595.298c-.21.052-.502.077-.877.077h-1.71v1.104h2.186zM74.43 28.873c.58.03.99-.015 1.228-.133.239-.118.358-.346.358-.684a.645.645 0 0 0-.303-.575c-.204-.132-.486-.198-.848-.198h-.434v1.59zm0 5.941c0 .84-.212 1.517-.638 2.032-.428.516-.996.773-1.707.773-.398 0-.771-.1-1.12-.298a2.375 2.375 0 0 1-.842-.806 4.656 4.656 0 0 1-.213-.409 1.772 1.772 0 0 1-.128-.42 3.973 3.973 0 0 1-.053-.585 31.78 31.78 0 0 1-.012-.906v-8.613c0-.53.047-.942.14-1.237.093-.294.26-.574.504-.84.242-.25.513-.433.814-.551.299-.118.67-.177 1.113-.177h1.971c.571 0 1.072.019 1.5.055.428.037.807.1 1.137.188.327.088.631.202.91.342.277.14.553.32.824.541.643.501 1.139 1.12 1.49 1.856.349.736.523 1.516.523 2.34a5.19 5.19 0 0 1-.548 2.342 5.403 5.403 0 0 1-1.536 1.877 4.732 4.732 0 0 1-1.505.817c-.516.163-1.125.243-1.827.243h-.796v1.436zM85.957 28.873c.579.03.987-.015 1.227-.133.24-.118.358-.346.358-.684 0-.25-.1-.442-.305-.575-.202-.132-.484-.198-.846-.198h-.434v1.59zm0 5.941c0 .84-.214 1.517-.64 2.032-.427.516-.996.773-1.707.773-.397 0-.77-.1-1.118-.298a2.372 2.372 0 0 1-.844-.806 4.66 4.66 0 0 1-.212-.409c-.058-.125-.1-.265-.129-.42s-.046-.349-.053-.585a29.407 29.407 0 0 1-.01-.906v-8.613c0-.53.046-.942.14-1.237.092-.294.26-.574.502-.84a2.3 2.3 0 0 1 .815-.551c.3-.118.67-.177 1.113-.177h1.971c.572 0 1.071.019 1.5.055.429.037.806.1 1.136.188.328.088.632.202.91.342.279.14.553.32.825.541a5.1 5.1 0 0 1 1.489 1.856c.35.736.525 1.516.525 2.34a5.19 5.19 0 0 1-.548 2.342 5.413 5.413 0 0 1-1.537 1.877 4.732 4.732 0 0 1-1.506.817c-.516.163-1.125.243-1.827.243h-.795v1.436zM97.503 34.814c0 .471-.046.858-.138 1.16a2.32 2.32 0 0 1-.461.828c-.229.25-.5.449-.815.596-.314.147-.628.22-.942.22-.328 0-.654-.07-.974-.209a2.102 2.102 0 0 1-.782-.563 2.051 2.051 0 0 1-.472-.817c-.086-.295-.128-.7-.128-1.215v-9.122c0-.309.007-.574.021-.795a3.12 3.12 0 0 1 .085-.574c.044-.162.104-.313.183-.453.078-.14.182-.276.31-.408.444-.53 1.022-.795 1.736-.795s1.3.257 1.756.773c.243.28.407.574.493.883.086.31.128.766.128 1.37v9.121zM112.158 33.202c0 .887-.514 1.798-1.543 2.73a7.855 7.855 0 0 1-2.336 1.442c-.856.34-1.742.51-2.655.51a7.211 7.211 0 0 1-2.943-.608 7.67 7.67 0 0 1-2.402-1.645 7.57 7.57 0 0 1-1.61-2.451 7.752 7.752 0 0 1-.586-3.004c0-1.075.198-2.084.597-3.026a7.87 7.87 0 0 1 1.62-2.463 7.604 7.604 0 0 1 2.403-1.656 7.216 7.216 0 0 1 2.942-.607c.871 0 1.714.15 2.528.45.814.3 1.564.744 2.25 1.33 1.157.953 1.735 1.92 1.735 2.903 0 .338-.061.654-.182.949a2.42 2.42 0 0 1-.504.772 2.322 2.322 0 0 1-.75.52 2.266 2.266 0 0 1-1.756.022 1.699 1.699 0 0 1-.643-.431l-.685-.773a2.45 2.45 0 0 0-.922-.663 2.904 2.904 0 0 0-1.114-.22c-.386 0-.75.073-1.093.22-.342.148-.642.35-.899.608a2.717 2.717 0 0 0-.6.916 2.965 2.965 0 0 0-.215 1.127 2.883 2.883 0 0 0 1.704 2.65c.335.148.697.22 1.082.22.386 0 .76-.084 1.125-.253.363-.169.688-.408.974-.718l.493-.53c.2-.206.446-.375.739-.508a2.113 2.113 0 0 1 1.789 0c.285.133.536.31.75.53.214.221.386.475.514.762.129.287.193.585.193.895zM117.38 34.483c0 .309-.007.563-.021.762a4.373 4.373 0 0 1-.065.519 1.95 1.95 0 0 1-.119.397c-.05.118-.118.243-.204.375-.215.34-.496.604-.84.796a2.28 2.28 0 0 1-1.12.287c-.417 0-.799-.096-1.142-.287a2.324 2.324 0 0 1-.842-.796 2.25 2.25 0 0 1-.204-.385 2.234 2.234 0 0 1-.119-.42 4.675 4.675 0 0 1-.064-.53 10.04 10.04 0 0 1-.022-.718v-8.88c0-.514.032-.912.097-1.192.065-.28.198-.544.399-.795.23-.294.506-.526.83-.696a2.22 2.22 0 0 1 1.044-.253c.374 0 .734.084 1.079.253.344.17.624.402.84.696.1.133.179.258.236.376.057.118.104.25.14.397.037.148.062.328.076.541.014.214.021.475.021.784v2.076h2.923v-2.01c0-.588.031-1.026.097-1.314a2.33 2.33 0 0 1 .4-.85 2.36 2.36 0 0 1 .801-.696 2.176 2.176 0 0 1 1.04-.253c.374 0 .732.08 1.07.242s.618.39.834.685c.187.25.321.53.4.84.08.308.12.699.12 1.17v8.923c0 .25-.008.468-.023.652-.014.184-.036.349-.064.496a2.03 2.03 0 0 1-.12.398c-.05.118-.111.243-.184.376a2.36 2.36 0 0 1-.854.861c-.354.206-.74.309-1.159.309-.375 0-.731-.085-1.071-.254a2.202 2.202 0 0 1-.833-.718 4.44 4.44 0 0 1-.227-.387 1.477 1.477 0 0 1-.141-.43 5.07 5.07 0 0 1-.065-.552 10.965 10.965 0 0 1-.021-.751v-2.12h-2.923v2.076z"/></svg>