<svg xmlns="http://www.w3.org/2000/svg" viewBox="0 0 283.4642944 102.6240997"><path d="M29.16 27.09c0 3.699-.955 7.697-5.19 7.697s-5.192-3.998-5.192-7.697c0-3.64.955-7.638 5.191-7.638s5.192 3.997 5.192 7.638zM7.382 42.603h11.397v-3.4h.12c1.491 1.968 3.281 4.176 9.069 4.176 8.77 0 13.008-8.652 13.008-16.41 0-7.278-2.805-16.11-13.187-16.11-3.52 0-6.683 1.552-8.473 4.177h-.12V0H7.382v42.603zM135.987 42.606h-9.3l-3.434-19.363h-.09l-3.528 19.363h-9.298l-7.422-31.502h9.436l3.527 19.486h.092l3.024-19.486h8.472l3.162 19.486h.183l3.298-19.486h9.436l-7.558 31.502zM227.656 11.553h6.327v7.281h-6.327v10.8c0 2.863.657 4.117 3.64 4.117.896 0 1.791-.06 2.687-.181v8.95c-2.388 0-5.071.36-7.58.36-5.01 0-10.56-.776-10.56-9.25V18.835h-5.855v-7.281h5.855V0h11.813v11.553z"/><path fill="#9D9D9C" d="M47.766 0H84.57v84.568H0V47.766h47.766M147.213 0h36.804v84.568h-84.57V47.766h47.766M246.662 0h36.802v84.568h-84.569V47.766h47.767"/><path d="M202.084 92.245h.9c1.169 0 1.552.688 1.552 1.323 0 .876-.46 1.444-1.57 1.444h-.882v-2.767zm-3.217 10.139h4.75c3.811 0 4.52-1.96 4.52-3.403 0-2.508-1.514-2.904-2.528-3.042v-.034c1.302-.223 2.144-1.34 2.144-2.766 0-2.045-1.55-3.025-3.887-3.025h-5v12.27zm3.217-5.447h1.035c.996 0 1.685.515 1.685 1.717 0 .86-.44 1.599-1.743 1.599h-.977v-3.316zM220.913 97.813h-2.337l1.13-5.465h.038l1.169 5.465zm-6.609 4.57h3.333l.479-2.336h3.275l.498 2.337h3.333l-3.41-12.27h-4.022l-3.486 12.27zM240.354 98.328c0 2.406-.767 4.296-4.501 4.296-3.735 0-4.501-1.89-4.501-4.296v-8.214h3.218v9.056c0 .963.42 1.53 1.283 1.53.861 0 1.283-.567 1.283-1.53v-9.056h3.218v8.214zM263.894 97.813h-2.337l1.13-5.465h.038l1.169 5.465zm-6.608 4.57h3.333l.478-2.336h3.275l.499 2.337h3.333l-3.41-12.27h-4.022l-3.486 12.27zM280.177 93.843c0-.79-.096-2.045-1.283-2.045-1.321 0-1.475 1.203-1.475 4.468 0 3.351.192 4.433 1.475 4.433 1.092 0 1.475-.893 1.475-2.577v-.395h-1.513v-1.925h4.5v6.582h-2.201l-.077-1.17h-.039c-.497 1.101-1.704 1.41-2.95 1.41-3.427 0-4.003-2.285-4.003-6.117 0-4.022.307-6.634 4.866-6.634 4.156 0 4.329 2.578 4.329 3.97h-3.104z"/></svg>