<svg id="Ebene_1" xmlns="http://www.w3.org/2000/svg" viewBox="0 0 125 74.2"><style>.st0{fill:#7c7c7b}</style><path d="M0 .4h9.1v7.4H5v2.6h3.8v7.1H5v2.7h4.3v7.4H0V.4zM21.9.4h4.9v18.4H31v8.7h-9.1V.4zM43 .4h4.9v27.1H43V.4zM60.8.4h5.7c2.6 0 5.3 1.3 5.3 7.5 0 2.4-.6 4.7-1.8 5.5v.2c1.5 1 2.4 3.2 2.4 6.4 0 5.6-2.6 7.5-5 7.5h-6.7V.4zm5 10.5c.7 0 1.5-.1 1.5-2 0-2-.9-1.9-1.6-1.9h-.3v3.9h.4zm-.4 10.2h.6c.8 0 2 0 2-2.3s-1.3-2.2-2.1-2.2h-.5v4.5zM88.7 27.6h-5.2L88.2.5h5.5l4.8 27.1h-5.2l-.5-3.4h-3.7l-.4 3.4zm3.3-9.9l-.6-4.7c-.1-1.2-.2-2.3-.3-3.5h-.2l-.9 8.2h2zM124.5 11.6c0 4.4 0 8.1-1.6 11.6-1.4 3.1-3.7 4.8-5.8 4.8-4.1 0-7.5-5.1-7.5-13.8 0-8.9 3.3-14.2 7.5-14.2 2.4 0 5.6 2.3 6.7 7l-4.6 3.4c-.4-1.4-1.1-2.1-1.9-2.1-1.8 0-2.7 3-2.7 6.3 0 3 .9 5.8 2.5 5.8.8 0 1.8-.7 2-2.4h-2.2v-6.4h7.6z"/><path class="st0" d="M0 52.8h125v5.3H0z"/><g><path d="M2.3 40.6l2.8 6.5H3.8l-2.5-6.3v6.3H.2V34.7h1.2v5.6l2.5-5.6h1.3l-2.9 5.9zM7 38.7V44c0 1.2.1 2.3 1.1 2.3 1.1 0 1.1-1.1 1.2-2.3v-5.3h1.1v6.2c0 1.4-.7 2.4-2.2 2.4-1.5 0-2.2-.9-2.2-2.4v-6.2h1zm-.8-2c0-.4.4-.8.8-.8s.8.4.8.8-.4.8-.8.8c-.5 0-.8-.3-.8-.8zm2.3 0c0-.4.4-.8.8-.8s.8.4.8.8-.4.8-.8.8-.8-.3-.8-.8zM15.2 40.1c-.3-.3-.6-.6-1-.6-1.4 0-1.5 2.4-1.5 3.4 0 .8.2 3.3 1.5 3.3.5 0 .8-.4 1.1-.8v1.3c-.3.3-.8.4-1.2.4-1.9 0-2.4-2.7-2.4-4.2 0-1.6.3-4.5 2.5-4.5.4 0 .8.1 1.2.3v1.4zM17.4 39.3c.4-.5 1-.8 1.7-.8 1.6 0 1.6 1.4 1.6 2.5v6.1h-1.1v-5.9c0-1.3-.1-1.8-1-1.8-1.2 0-1.3 1.3-1.3 2.2v5.5h-1.1V33.9h1.1v5.4zM23.1 43.1v.2c0 .8.1 2.9 1.3 2.9.9 0 1.1-1.3 1.1-2h1.1c0 1.3-.5 3-2.1 3-2.2 0-2.5-2.6-2.5-4.3 0-1.5.3-4.4 2.4-4.4 2 0 2.3 2.6 2.3 4.1v.5h-3.6zm2.5-.9v-.1c0-.8-.1-2.5-1.2-2.5-1 0-1.3 1.9-1.3 2.7h2.5zM29 39.3c.4-.5 1-.8 1.7-.8 1.5 0 1.6 1.4 1.6 2.5v6.1h-1.1v-5.9c0-1-.1-1.8-1-1.8-1.2 0-1.3 1.3-1.3 2.2v5.5h-1.1v-8.5H29v.7zM38.6 47.1h-1.2V34.7h1.2v12.4zM41.4 39.3c.4-.5 1-.8 1.7-.8 1.5 0 1.6 1.4 1.6 2.5v6.1h-1.1v-5.9c0-1-.1-1.8-1-1.8-1.2 0-1.3 1.3-1.3 2.2v5.5h-1.1v-8.5h1.1v.7zM47.2 39.3c.4-.5 1-.8 1.7-.8 1.5 0 1.6 1.4 1.6 2.5v6.1h-1.1v-5.9c0-1-.1-1.8-1-1.8-1.2 0-1.3 1.3-1.3 2.2v5.5H46v-8.5h1.1v.7zM52.9 43.1v.2c0 .8.1 2.9 1.3 2.9.9 0 1.1-1.3 1.1-2h1.1c0 1.3-.5 3-2.1 3-2.2 0-2.5-2.6-2.5-4.3 0-1.5.3-4.4 2.4-4.4 2 0 2.3 2.6 2.3 4.1v.5h-3.6zm2.5-.9v-.1c0-.8-.1-2.5-1.2-2.5-1 0-1.3 1.9-1.3 2.7h2.5zM58.8 39.3c.4-.5 1-.8 1.7-.8 1.5 0 1.6 1.4 1.6 2.5v6.1H61v-5.9c0-1-.1-1.8-1-1.8-1.2 0-1.3 1.3-1.3 2.2v5.5h-1.1v-8.5h1.1v.7zM67.8 47.1h-1.1v-.7c-.3.5-.8.8-1.4.8-1.4 0-2-.8-2-4.5 0-1.9.1-4.3 2.1-4.3.6 0 1 .2 1.3.7v-.6h1.1v8.6zm-2.2-7.7c-1.2 0-1.3 1.9-1.3 3.3 0 3.5.6 3.7 1.2 3.7 1 0 1.2-1 1.2-3.6.1-1.9 0-3.4-1.1-3.4zM70.3 38.7V44c0 1.2.1 2.3 1.1 2.3 1.1 0 1.1-1.1 1.2-2.3v-5.3h1.1v6.2c0 1.4-.7 2.4-2.2 2.4-1.5 0-2.2-.9-2.2-2.4v-6.2h1zM78.3 40.4c-.3-.4-.8-.9-1.4-.9-.6 0-1.1.5-1.1 1.1 0 .8.7 1.3 1.4 1.9.7.6 1.4 1.2 1.4 2.3 0 1.4-.9 2.4-2.3 2.4-.5 0-1.1-.2-1.5-.6v-1.3c.4.4.9.8 1.5.8.7 0 1.2-.6 1.2-1.3 0-.8-.7-1.4-1.4-2-.7-.6-1.4-1.3-1.4-2.3 0-1.3.8-2.2 2.1-2.2.5 0 1.1.2 1.5.5v1.6zM79.7 33.9h1.1v5.3c.3-.5.7-.7 1.3-.7 2 0 2.1 2.4 2.1 4.3 0 2.1-.2 4.5-2 4.5-.6 0-1.1-.3-1.4-.8v.7h-1.1V33.9zm3.4 8.8c0-1.9-.2-3.3-1.3-3.3-1.3 0-1.2 2.5-1.2 3.2 0 1-.1 3.7 1.2 3.7.9.1 1.3-.7 1.3-3.6zM89.7 47.1h-1.1v-.7c-.3.5-.8.8-1.4.8-1.4 0-2-.8-2-4.5 0-1.9.1-4.3 2.1-4.3.6 0 1 .2 1.3.7v-.6h1.1v8.6zm-2.2-7.7c-1.2 0-1.3 1.9-1.3 3.3 0 3.5.6 3.7 1.2 3.7 1 0 1.2-1 1.2-3.6.1-1.9 0-3.4-1.1-3.4zM92.2 38.7V44c0 1.2.1 2.3 1.1 2.3 1.1 0 1.1-1.1 1.2-2.3v-5.3h1.1v6.2c0 1.4-.7 2.4-2.2 2.4-1.5 0-2.2-.9-2.2-2.4v-6.2h1zM104.7 35.8h-1.9v11.4h-1.2V35.8h-1.9v-1.1h4.9v1.1zM106.5 38.7V44c0 1.2.1 2.3 1.1 2.3 1.1 0 1.1-1.1 1.2-2.3v-5.3h1.1v6.2c0 1.4-.7 2.4-2.2 2.4-1.5 0-2.2-.9-2.2-2.4v-6.2h1zm-.8-2c0-.4.4-.8.8-.8s.8.4.8.8-.4.8-.8.8c-.5 0-.8-.3-.8-.8zm2.4 0c0-.4.4-.8.8-.8s.8.4.8.8-.4.8-.8.8-.8-.3-.8-.8zM112.4 39.8c.3-.6.7-1.3 1.4-1.3v1.3h-.2c-1.1 0-1.2 1.1-1.2 2.4v4.9h-1.1v-8.5h1.1v1.2zM115.5 43.1v.2c0 .8.1 2.9 1.3 2.9.9 0 1.1-1.3 1.1-2h1.1c0 1.3-.5 3-2.1 3-2.2 0-2.5-2.6-2.5-4.3 0-1.5.3-4.4 2.4-4.4 2 0 2.3 2.6 2.3 4.1v.5h-3.6zm2.5-.9v-.1c0-.8-.1-2.5-1.2-2.5-1 0-1.3 1.9-1.3 2.7h2.5zM121.4 39.3c.4-.5 1-.8 1.7-.8 1.5 0 1.6 1.4 1.6 2.5v6.1h-1.1v-5.9c0-1-.1-1.8-1-1.8-1.2 0-1.3 1.3-1.3 2.2v5.5h-1.1v-8.5h1.1v.7z"/></g><g><path class="st0" d="M3.9 71.9h-.7l-1.9-5.7c-.1-.3-.2-.7-.3-1.1V71.8H.4v-8.4H1l2 5.9.3.9c0-.4-.1-.8-.1-1.1v-5.6h.7v8.4zM8.1 71.9h-.8v-.4c-.2.3-.5.5-1 .5-.9 0-1.4-.5-1.4-3 .1-1.4.1-3 1.5-3 .4 0 .7.2.9.5v-.4H8v5.8zm-1.5-5.3c-.8 0-.9 1.3-.9 2.3 0 2.4.4 2.5.8 2.5.7 0 .8-.7.8-2.5.1-1.2 0-2.3-.7-2.3zM11.5 67.1c-.2-.2-.4-.4-.7-.4-.9 0-1 1.6-1 2.3 0 .6.1 2.3 1 2.3.3 0 .5-.3.7-.5v.9c-.2.2-.5.3-.8.3C9.3 72 9 70.1 9 69.1c0-1.1.2-3.1 1.7-3.1.3 0 .6.1.8.2v.9zM13.1 66.6c.3-.3.7-.5 1.1-.5 1.1 0 1.1.9 1.1 1.7v4.1h-.7v-4c0-.9-.1-1.3-.6-1.3-.8 0-.9.9-.9 1.5v3.7h-.7v-9h.7v3.8z"/><path d="M21.1 71.9h-.7l-.9-5.7c0-.3-.1-.9-.1-1.4 0 .5-.1 1.1-.1 1.4l-1 5.7h-.7l-1.3-8.4h.7l.8 5.6c.1.4.1.8.1 1.3.1-.4.1-.8.2-1.3l1-5.6h.7l.8 5.6c.1.4.1.8.2 1.3 0-.4.1-.8.1-1.3l.9-5.6h.8l-1.5 8.4zM24 66.1v3.6c0 .8 0 1.5.8 1.5.7 0 .8-.8.8-1.5v-3.6h.7v4.2c0 1-.5 1.6-1.5 1.6s-1.5-.6-1.5-1.6v-4.2h.7zM28.1 66.6c.3-.3.7-.5 1.1-.5 1 0 1.1.9 1.1 1.7v4.1h-.7v-4c0-.7 0-1.2-.6-1.2-.8 0-.9.9-.9 1.5v3.7h-.7v-5.7h.7v.4zM33.7 67.3c-.2-.3-.6-.6-1-.6s-.7.3-.7.8.5.9.9 1.3c.5.4.9.8.9 1.6 0 .9-.6 1.6-1.6 1.6-.4 0-.8-.2-1-.4v-.9c.3.3.6.6 1 .6.5 0 .8-.4.8-.9 0-.6-.5-1-.9-1.4-.5-.4-.9-.9-.9-1.5 0-.9.6-1.5 1.4-1.5.4 0 .7.1 1 .4v.9zM37 67.1c-.2-.2-.4-.4-.7-.4-.9 0-1 1.6-1 2.3 0 .6.1 2.3 1 2.3.3 0 .5-.3.7-.5v.9c-.2.2-.5.3-.8.3-1.3 0-1.6-1.9-1.6-2.8 0-1.1.2-3.1 1.7-3.1.3 0 .6.1.8.2v.8zM38.6 66.6c.3-.3.7-.5 1.1-.5 1.1 0 1.1.9 1.1 1.7v4.1h-.7v-4c0-.9-.1-1.3-.6-1.3-.8 0-.9.9-.9 1.5v3.7h-.7v-9h.7v3.8z"/><path class="st0" d="M52.9 71.9h-.7l-1.9-5.7c-.1-.3-.2-.7-.3-1.1 0 .5.1 1.1.1 1.6v5.1h-.7v-8.4h.7l1.9 5.9.3.9c0-.4-.1-.8-.1-1.1v-5.6h.7v8.4zM57.1 71.9h-.7v-.4c-.2.3-.5.5-1 .5-.9 0-1.4-.5-1.4-3 0-1.3 0-2.9 1.4-2.9.4 0 .7.2.9.5v-.4h.7v5.7zm-1.4-5.3c-.8 0-.9 1.3-.9 2.3 0 2.4.4 2.5.8 2.5.7 0 .8-.7.8-2.5.1-1.2 0-2.3-.7-2.3zM60.6 67.1c-.2-.2-.4-.4-.7-.4-.9 0-1 1.6-1 2.3 0 .6.1 2.3 1 2.3.3 0 .5-.3.7-.5v.9c-.3.1-.6.3-.9.3-1.3 0-1.6-1.9-1.6-2.8 0-1.1.2-3.1 1.7-3.1.3 0 .6.1.8.2v.8zM62.2 66.6c.3-.3.7-.5 1.1-.5 1.1 0 1.1.9 1.1 1.7v4.1h-.7v-4c0-.9-.1-1.3-.6-1.3-.8 0-.9.9-.9 1.5v3.7h-.7v-9h.7v3.8z"/><path d="M71.1 71.9h-.8l-.6-6.2v-.8c-.1.6-.1 1.1-.2 1.7l-.9 5.4H68l-.9-6.2c0-.3-.1-.5-.1-.8 0 .5 0 1.1-.1 1.7l-.7 5.4h-.8l1.2-8.4h.7l1 6.3c0 .3.1.6.1.8.1-.5.1-1 .2-1.5l1-5.7h.4l1.1 8.3zM74.8 71.9h-.7v-.4c-.2.3-.5.5-1 .5-.9 0-1.4-.5-1.4-3 0-1.3 0-2.9 1.4-2.9.4 0 .7.2.9.5v-.4h.7v5.7zm-1.4-5.3c-.8 0-.9 1.3-.9 2.3 0 2.4.4 2.5.8 2.5.7 0 .8-.7.8-2.5.1-1.2 0-2.3-.7-2.3zM78.1 67.3c-.2-.3-.6-.6-1-.6s-.7.3-.7.8.5.9.9 1.3c.5.4.9.8.9 1.6 0 .9-.6 1.6-1.6 1.6-.4 0-.8-.2-1-.4v-.9c.3.3.6.6 1 .6.5 0 .8-.4.8-.9 0-.6-.5-1-.9-1.4-.5-.4-.9-.9-.9-1.5 0-.9.6-1.5 1.4-1.5.4 0 .7.1 1 .4v.9zM81.4 67.3c-.2-.3-.6-.6-1-.6s-.7.3-.7.8.5.9.9 1.3c.5.4.9.8.9 1.6 0 .9-.6 1.6-1.6 1.6-.4 0-.8-.2-1-.4v-.9c.3.3.6.6 1 .6.5 0 .8-.4.8-.9 0-.6-.5-1-.9-1.4-.5-.4-.9-.9-.9-1.5 0-.9.6-1.5 1.4-1.5.4 0 .7.1 1 .4v.9z"/><path class="st0" d="M94.6 71.9h-.7L92 66.2c-.1-.3-.2-.7-.3-1.1 0 .5.1 1.1.1 1.6v5.1h-.7v-8.4h.7l1.9 5.9.3.9c0-.4-.1-.8-.1-1.1v-5.6h.7v8.4zM98.8 71.9H98v-.4c-.2.3-.5.5-1 .5-.9 0-1.4-.5-1.4-3 0-1.3 0-2.9 1.4-2.9.4 0 .7.2.9.5v-.4h.7v5.7zm-1.5-5.3c-.8 0-.9 1.3-.9 2.3 0 2.4.4 2.5.8 2.5.7 0 .8-.7.8-2.5.1-1.2 0-2.3-.7-2.3zM102.2 67.1c-.2-.2-.4-.4-.7-.4-.9 0-1 1.6-1 2.3 0 .6.1 2.3 1 2.3.3 0 .5-.3.7-.5v.9c-.2.2-.5.3-.8.3-1.3 0-1.6-1.9-1.6-2.8 0-1.1.2-3.1 1.7-3.1.3 0 .6.1.8.2v.8zM103.8 66.6c.3-.3.7-.5 1.1-.5 1.1 0 1.1.9 1.1 1.7v4.1h-.7v-4c0-.9-.1-1.3-.6-1.3-.8 0-.9.9-.9 1.5v3.7h-.7v-9h.7v3.8z"/><path d="M107.9 66.6c.3-.3.7-.5 1.1-.5 1.1 0 1.1.9 1.1 1.7v4.1h-.7v-4c0-.9-.1-1.3-.6-1.3-.8 0-.9.9-.9 1.5v3.7h-.7v-9h.7v3.8zM114.2 71.9h-.7v-.4c-.2.3-.5.5-1 .5-.9 0-1.4-.5-1.4-3 0-1.3 0-2.9 1.4-2.9.4 0 .7.2.9.5v-.4h.7v5.7zm-1.5-5.3c-.8 0-.9 1.3-.9 2.3 0 2.4.4 2.5.8 2.5.7 0 .8-.7.8-2.5.1-1.2 0-2.3-.7-2.3zM116 71.9h-.7v-9h.7v9zM119.1 66.8h-1v5.1h-.7v-5.1h-.6v-.7h.6v-1.6h.7v1.6h1v.7zM119.9 65c-.3 0-.5-.2-.5-.5s.2-.5.5-.5.5.2.5.5c.1.2-.2.5-.5.5zm.4 6.9h-.7v-5.7h.7v5.7zM124.3 72.1c0 1.1 0 2.1-1.5 2.1-1 0-1.5-.6-1.5-1.6v-.2h.7v.1c0 .5.1 1 .8 1 .8 0 .8-.7.8-1.3v-.7c-.2.3-.5.4-.9.4-1.4 0-1.5-2-1.5-3s.1-2.8 1.4-2.8c.4 0 .7.2.9.5v-.4h.7v5.9zm-1.4-.8c.8 0 .8-1.1.8-2.4 0-1.1-.1-2.3-.9-2.3-.5 0-.9.4-.9 2.5.1.6.1 2.2 1 2.2z"/><path class="st0" d="M44.7 62.9h.9v9h-.9zM85.8 62.9h.9v9h-.9z"/></g></svg>