<?xml version="1.0" encoding="UTF-8"?>
<svg id="Farbwelt_Landolt" xmlns="http://www.w3.org/2000/svg" version="1.1" viewBox="0 0 163 174.5">
  <!-- Generator: Adobe Illustrator 29.0.1, SVG Export Plug-In . SVG Version: 2.1.0 Build 192)  -->
  <defs>
    <style>
      .st0 {
        fill: #d0d0d0;
      }

      .st1 {
        fill: #a5a5a5;
      }

      .st2 {
        fill: #919191;
      }

      .st3 {
        fill: #424242;
      }

      .st4 {
        fill: #acacac;
      }

      .st5 {
        fill: #686868;
      }
    </style>
  </defs>
  <path class="st3" d="M26.9,83.2c-9.6,1.1-18.6,2.5-26.9,4.2v10.1c8.3-1.7,17.3-3.1,26.9-4.2v-10h0Z"/>
  <path class="st0" d="M26.9,83.2v10c8.7-1,18-1.8,27.5-2.4v-9.9c-9.6.5-18.8,1.3-27.5,2.3"/>
  <path class="st1" d="M81.5,80.2c-9.3,0-18.3.2-27.1.7v9.9c8.8-.5,17.8-.7,27.1-.7h.5v-9.9h-.5"/>
  <path class="st2" d="M81.9,80.2v9.9c9.4,0,18.6.3,27.5.8v-10c-8.9-.5-18.1-.7-27.5-.8"/>
  <path class="st4" d="M109.5,80.9v10c9.6.6,18.8,1.4,27.5,2.4v-10c-8.7-1-17.9-1.8-27.5-2.3"/>
  <path class="st5" d="M137,93.3c9.3,1.1,18,2.5,26,4.1v-10.1c-8-1.6-16.7-3-26-4.1v10h0Z"/>
  <path d="M68.5,97.7c-3,0-5.5,1-7.6,3.1s-3.2,4.5-3.2,7.4v24.5c0,4.6-1.3,6.9-3.8,6.9h-2.4c-2.5,0-3.8-2.3-3.8-6.9v-35h-9.2v35c0,4.6-1.3,6.9-3.8,6.9h-2.5c-2.5,0-3.8-2.3-3.8-6.9v-24.3c-.4.5-.8,1.1-1.4,1.6-2.3,2.2-4.9,3.5-7.9,3.9v16.6c0,2.9,1,5.4,3.1,7.4,2.1,2.1,4.7,3.1,7.6,3.1h7.1c2.2,0,4.2-.6,6.1-1.9,1.9,1.3,3.9,1.9,6.2,1.9h7c3,0,5.5-1,7.6-3.1,2.1-2.1,3.2-4.5,3.2-7.4v-24.5c0-4,1.3-6.3,3.8-7.1l4.4-1h.4c0,0-7.1,0-7.1,0h0Z"/>
  <path d="M151,140.7l-4.4-1.1c-2.5-.8-3.8-3.1-3.7-7.1v-30.8h7.6v-2.4h-7.6v-26.3h0c-.2.2-.4.4-.6.6-2.4,2.4-5.3,2.8-8.7,3.1v22.6h-4.6v2.4h4.6v28.6c0,2.9,1,5.4,3.1,7.4,2.1,2.1,4.7,3.1,7.6,3.1h7.1-.4Z"/>
  <path d="M54.1,70.7c2.7,0,4-2.3,4-6.8v-17.9c.2,0-1.6.5-5.3,1.9-3.3,1.2-5.1,2.3-5.3,3.3v12.7c0,4.5,1.3,6.8,4,6.8h2.7-.1ZM59.6,72.1c-.3-.5-.6-1.1-.8-1.7-.5.6-.9.9-1.2,1.1-.6.3-1.2.5-1.9.6h-6.6c-3.2,0-5.9-1-8.2-3.1-2.2-2.1-3.4-4.5-3.4-7.4v-2.9c0-3.3,1-5.8,3-7.6,1.5-1.4,5.2-3.1,11-5,2.9-1,4.8-1.6,5.8-2s.8-.5.9-1v-6c0-4.6-1.3-6.8-4-6.8h-2.6c-2.7,0-4.1,2.3-4.1,6.8v6.2h-9.9v-3.9c0-2.9,1.2-5.4,3.4-7.4,2.2-2.1,5-3.1,8.1-3.1h7.5c3.2,0,5.9,1,8.2,3.1,2.2,2.1,3.3,4.5,3.3,7.4v26.5c0,1,0,2,.2,3,.3,1,.7,2.1,1.3,3.3h-10Z"/>
  <path d="M103,29.3c1.9.3,3.4,1,4.6,2.1v12h-9.9v-6.2c0-4.4-1.7-6.1-5-4.9-1,.3-1.9.8-2.6,1.5v7.9h0v28.2h6.5v2.4h-22.9v-2.4h6.5V31.3h-6.4v-2.4h16.4v2c2.5-1.4,4.5-2,6.1-2h1.6c1.7,0,3.4,0,5.3.4"/>
  <path d="M129.5,71.1c2.4-.5,4-2.6,4-7.2v-26.8c0-4.6-1.3-6.8-4-6.8h-2.6c-2.7,0-4.1,2.3-4.1,6.8v17.6h-10V2.4c0,0-6.4,0-6.4,0V0h16.5v29c.5,0,1.1-.1,1.5-.1h7.5c3.2,0,5.9,1,8.2,3.1,2.3,2.1,3.4,4.5,3.4,7.4v22.3c0,2.9-1.1,5.4-3.4,7.4-2.2,2.1-5,3.1-8.2,3.1h-6.7l4.3-1.1h0Z"/>
  <path d="M89.5,98.9c-2.5,0-3.8,2.3-3.8,6.8v10.8h10.1v-10.8c0-4.6-1.2-6.8-3.8-6.8h-2.5,0ZM85.7,118.9v13.6c0,4.5,1.2,6.8,3.7,6.8h2.5c2.5,0,3.8-2.3,3.8-6.8v-6.2h9.3v3.9c0,2.9-1.1,5.4-3.2,7.4s-4.7,3.1-7.6,3.1h-7.1c-3,0-5.5-1-7.6-3.1s-3.1-4.5-3.2-7.4v-22.3c0-2.9,1.1-5.4,3.2-7.4,2.1-2.1,4.7-3.1,7.6-3.1h7.1c3,0,5.5,1,7.6,3.1s3.1,4.5,3.1,7.4v10.9h-19.3,0Z"/>
  <polygon points="107.1 60.2 107 62.6 113.2 62.6 113.1 138.4 107 138.4 107 140.8 128.5 140.8 128.5 138.4 122.4 138.4 122.4 60.2 107.1 60.2"/>
  <path d="M32,1.2c-2.5.8-3.8,3.1-3.8,7.1v20.6h6.5v2.4h-6.5v66.7c0,2.9-1.1,5.4-3.2,7.4-2.1,2.1-4.7,3.1-7.7,3.1h-7,.4l4.4-1.2c2.5-.8,3.8-3.2,3.8-7.1V31.2h-5.8v-2.4h5.8V10.5c0-2.9,1.1-5.4,3.2-7.4C24.2,1,26.8,0,29.8,0h7.1-.4l-4.4,1.2h0Z"/>
  <path d="M19.1,148.8h3.4v22.5h5.6v2.9h-9v-25.4h0Z"/>
  <path d="M39.7,148.8h2.7l5.4,25.4h-3.4l-1-4.9h-5l-1,4.9h-3.3l5.5-25.4h0ZM43,166.6l-.8-4c-.5-2.8-.9-5.7-1.2-8.8-.2,1.5-.3,3.1-.6,4.6s-.5,3.2-.8,5l-.6,3.2h4.1-.1Z"/>
  <path d="M55.7,148.8h3.2l3.4,10.1c1,2.9,1.9,5.9,2.6,9.2-.3-2-.5-3.7-.6-5.3s-.2-3.1-.2-4.5v-9.5h3.4v25.4h-3.2l-3.8-11.4c-.3-1.1-.7-2.1-1-3.3-.3-1.1-.6-2.3-.9-3.5,0-.1,0-.3,0-.6s0-.5-.2-.8v1.2l.2,2.6.2,3.1v1.5l.2,11.1h-3.4v-25.4h.2Z"/>
  <path d="M77.6,148.8h4.2c1.3,0,2.4.1,3.2.4.8.3,1.5.8,2.2,1.5,1,1.1,1.6,2.4,2,4.1.4,1.6.6,4,.6,7s-.2,5.1-.7,6.8c-.4,1.7-1.2,3-2.2,3.9-1.2,1.1-3.5,1.7-6.7,1.7h-2.8v-25.4h.2ZM81,171.2c2.1,0,3.5-.6,4.2-1.9.7-1.3,1.1-3.7,1.1-7.4s-.3-6.6-1-8.1-2-2.2-3.8-2.2h-.4v19.5h0Z"/>
  <path d="M111.5,162.1c0,4.5-.5,7.7-1.5,9.6-1,1.9-2.7,2.8-5,2.8s-4.2-1-5.2-3-1.5-5.5-1.5-10.6.5-7.7,1.5-9.6c1-1.9,2.7-2.8,5.1-2.8s3.7.7,4.7,2.2c.7,1,1.2,2.4,1.5,4.2.3,1.7.5,4.1.5,7.3h0ZM108,162.5c0-4.4-.2-7.3-.6-8.8-.4-1.4-1.2-2.2-2.4-2.2s-2,.7-2.4,2-.6,4-.6,8.1.2,6.3.6,7.7,1.2,2,2.4,2,1.9-.6,2.4-1.9c.4-1.3.6-3.6.6-7h0Z"/>
  <path d="M120.8,148.8h3.4v22.5h5.6v2.9h-9v-25.4h0Z"/>
  <path d="M134.9,148.8h11.1v3h-3.8v22.4h-3.4v-22.4h-3.9v-3h0Z"/>
</svg>