<svg width="315" height="81" viewBox="0 0 315 81" fill="none" xmlns="http://www.w3.org/2000/svg">
<path d="M209.7 51.1C209.7 67.5 197.8 80.1 183.4 80.1C176 80.1 170.6 77.6 167 73.4V78.6H150.5V1.60001H167V28.8C170.6 24.6 176 22.1 183.4 22.1C197.8 22.1 209.7 34.7 209.7 51.1ZM193.2 51.1C193.2 42.9 187.7 37.7 180.1 37.7C172.5 37.7 167 42.9 167 51.1C167 59.4 172.5 64.5 180.1 64.5C187.7 64.5 193.2 59.4 193.2 51.1Z" fill="black"/>
<path d="M207.3 1.60001H225.8L239.1 55.5L254.7 18.5H267.6L283.1 55.5L296.5 1.60001H314.9L293.7 78.6H273.7L261.1 48.3L248.6 78.6H228.6L207.3 1.60001Z" fill="black"/>
<path d="M137.7 61.7V78.6H89.3V1.60001H137.2V18.5H106.9V31.3H134.4V48H106.9V61.6H137.7V61.7Z" fill="black"/>
<path d="M80.1 42.3C80.1 65.8 63.7 80.1 42.1 80.1C17.9 80.1 0.5 62.3 0.5 40.2C0.5 17.9 18.2 0 40.9 0C55.6 0 68.1 7.3 74.6 17.6L59.6 26.2C56.4 21.1 49.5 17.2 40.8 17.2C27.8 17.2 18.1 26.8 18.1 40.3C18.1 53.4 27.3 63 42.3 63C52.5 63 59.2 58.5 62 51.1H41.5V35.7H80.1V42.3Z" fill="black"/>
</svg>
