<svg id="Ebene_1" xmlns="http://www.w3.org/2000/svg" viewBox="0 0 328 41.2"><style>.st0{fill:#555}</style><path d="M14.4 34.6v-9.2H5.1v9.2H0v-23h5.1v9.1h9.3v-9.1h5.1v23h-5.1zM36.3 35c-7.1 0-12.2-5.3-12.2-11.8v-.1c0-6.5 5.2-11.9 12.2-11.9 7.1 0 12.2 5.3 12.2 11.8v.1c.1 6.6-5.1 11.9-12.2 11.9zm7-11.9c0-3.9-2.9-7.2-7-7.2s-6.9 3.2-6.9 7.2v.1c0 3.9 2.9 7.2 7 7.2 4.1-.1 6.9-3.3 6.9-7.3zM58.4 16.2v4.9h11v4.6h-11v8.9h-5.1v-23h17.5v4.6H58.4zM93.6 34.6v-15l-6.5 9.8H87l-6.4-9.7v14.9h-5v-23H81l6 9.7 6-9.7h5.4v23h-4.8zM121.7 34.6l-2.1-5.2h-9.7l-2.1 5.2h-5.2l9.8-23.1h4.7l9.8 23.1h-5.2zm-6.9-17l-3.1 7.4h6.1l-3-7.4zM147.3 34.6L136.2 20v14.6h-5v-23h4.7l10.8 14.1V11.6h5v23h-4.4zM173.8 34.6L162.7 20v14.6h-5v-23h4.7l10.7 14.2V11.6h5v23h-4.3z"/><path class="st0" d="M189.8 22.9h11.7v11.7h-11.7zM189.8 0h11.7v11.7h-11.7z"/><path d="M217.6 33.5c-1.9-1.1-3.4-2.5-4.5-4.4-1.1-1.9-1.6-4-1.6-6.3s.5-4.4 1.6-6.3c1.1-1.9 2.6-3.4 4.5-4.4 1.9-1.1 4-1.6 6.2-1.6 1.4 0 2.7.2 3.9.6 1.2.4 2.3.9 3.2 1.6v3c-.9-.9-2-1.6-3.2-2.1-1.2-.5-2.5-.7-3.9-.7-1.8 0-3.5.4-5 1.3s-2.6 2-3.5 3.5c-.8 1.5-1.3 3.2-1.3 5s.4 3.5 1.3 5c.8 1.5 2 2.7 3.5 3.5s3.1 1.3 5 1.3c1.3 0 2.5-.2 3.6-.6 1.1-.4 2.1-1 2.9-1.8V24h-7.2v-2.4h9.9v9.5c-1.1 1.2-2.5 2.2-4.1 2.9-1.6.7-3.3 1-5.1 1-2.2.1-4.3-.4-6.2-1.5zM240.7 17.5v2.9c.5-1 1.1-1.7 2-2.3.9-.6 2-.9 3.2-.9.4 0 .7 0 1.1.1V20c-.5-.1-1-.2-1.7-.2-1.3 0-2.4.4-3.3 1.3-.9.9-1.3 2.1-1.3 3.5v10h-2.5V17.5h2.5zM252.6 33.2c-1.3-1.2-2-3-2-5.2V17.5h2.5v10.3c0 1.6.4 2.8 1.2 3.7.8.8 2 1.3 3.4 1.3 1.5 0 2.6-.4 3.4-1.3.8-.9 1.3-2.1 1.3-3.7V17.5h2.5v10.3c0 2.3-.7 4.1-2 5.4s-3.1 1.9-5.3 1.9c-2 0-3.7-.6-5-1.9zM272.2 17.5V20c.5-.9 1.3-1.6 2.3-2.2 1-.6 2.3-.9 3.8-.9 1.6 0 3 .4 4.4 1.2 1.3.8 2.4 1.9 3.1 3.3s1.2 2.9 1.2 4.6c0 1.7-.4 3.2-1.2 4.6-.8 1.4-1.8 2.5-3.1 3.3-1.3.8-2.8 1.2-4.4 1.2-1.5 0-2.8-.3-3.8-.9-1-.6-1.8-1.3-2.3-2.2v9.1h-2.5V17.5h2.5zm9.3 14.4c.9-.6 1.7-1.4 2.2-2.4.5-1 .8-2.2.8-3.4 0-1.3-.3-2.4-.8-3.4s-1.3-1.8-2.2-2.4c-.9-.6-2-.9-3.1-.9-1.2 0-2.3.3-3.3.9-1 .6-1.7 1.4-2.3 2.4-.6 1-.8 2.2-.8 3.4 0 1.3.3 2.4.8 3.4.6 1 1.3 1.8 2.3 2.4s2.1.9 3.3.9c1.1 0 2.1-.3 3.1-.9zM293.5 17.5V20c.5-.9 1.3-1.6 2.3-2.2 1-.6 2.3-.9 3.8-.9 1.6 0 3 .4 4.4 1.2 1.3.8 2.4 1.9 3.1 3.3s1.2 2.9 1.2 4.6c0 1.7-.4 3.2-1.2 4.6-.8 1.4-1.8 2.5-3.1 3.3-1.3.8-2.8 1.2-4.4 1.2-1.5 0-2.8-.3-3.8-.9-1-.6-1.8-1.3-2.3-2.2v9.1H291V17.5h2.5zm9.3 14.4c.9-.6 1.7-1.4 2.2-2.4.5-1 .8-2.2.8-3.4 0-1.3-.3-2.4-.8-3.4s-1.3-1.8-2.2-2.4c-.9-.6-2-.9-3.1-.9-1.2 0-2.3.3-3.3.9-1 .6-1.7 1.4-2.3 2.4-.6 1-.8 2.2-.8 3.4 0 1.3.3 2.4.8 3.4.6 1 1.3 1.8 2.3 2.4s2.1.9 3.3.9c1.1 0 2.1-.3 3.1-.9zM315.7 34.1c-1.3-.7-2.3-1.8-3.1-3.1-.7-1.3-1.1-2.9-1.1-4.7v-.2c0-1.8.4-3.4 1.1-4.8.7-1.4 1.8-2.4 3.1-3.2s2.8-1.1 4.4-1.1c1.5 0 2.9.4 4.1 1.1 1.2.7 2.1 1.8 2.8 3.1.7 1.3 1 2.7 1 4.3v1.1h-13.9c.1 1.9.7 3.4 1.8 4.6 1.1 1.1 2.6 1.7 4.4 1.7 1.5 0 2.8-.2 3.9-.7s1.9-1.1 2.4-1.7v2.9c-.9.7-1.8 1.1-2.7 1.5-1 .3-2.1.5-3.6.5-1.8-.2-3.3-.5-4.6-1.3zm8.9-12.2c-.5-.8-1.1-1.4-1.9-1.8-.8-.5-1.7-.7-2.6-.7-1 0-2 .2-2.9.7-.9.5-1.6 1.1-2.1 1.8-.5.8-.8 1.6-.9 2.5h11.1c0-.9-.2-1.7-.7-2.5z"/></svg>