<svg xmlns="http://www.w3.org/2000/svg" viewBox="0 0 115.9372711 51.4494019"><path d="M0 0v51.45h115.937V0H0z"/><path fill="#FFF" d="M1.134 1.134H78.47v32.882H1.134V1.134z"/><path d="M114.803 50.315H1.133V35.15h113.67v15.165z"/><path fill="#BEBFC2" d="M114.803 34.016H79.66V1.134h35.142v32.882z"/><path d="M5.706 6.304h4.992v8.447h9.696V6.304h4.992V28.96h-4.992v-9.792h-9.696v9.792H5.706V6.304zM48.297 20.224c0 5.343-3.264 9.312-9.536 9.312-6.303 0-9.568-3.969-9.568-9.312V6.304h4.993v13.728c0 2.784 1.92 4.896 4.575 4.896 2.624 0 4.544-2.112 4.544-4.896V6.304h4.992v13.92zM73.417 27.36c-2.944 1.536-6.176 2.176-9.504 2.176-7.072 0-12.224-4.64-12.224-11.904S56.841 5.728 63.913 5.728c3.584 0 6.752.8 9.024 2.912l-3.52 3.84c-1.344-1.408-2.976-2.144-5.504-2.144-4.256 0-7.04 3.072-7.04 7.296s2.784 7.296 7.04 7.296c2.176 0 3.776-.608 4.704-1.12v-3.68h-4.064V15.52h8.864v11.84z"/><path fill="none" stroke="#000" stroke-width="1.373" stroke-miterlimit="2.613" d="M101.638 8.703a4.394 4.394 0 1 1-8.788 0 4.394 4.394 0 0 1 8.788 0zm-5.062 8.782a4.393 4.393 0 1 1-8.786 0 4.393 4.393 0 0 1 8.786 0zm10.139 0a4.394 4.394 0 1 1-8.788 0 4.394 4.394 0 0 1 8.788 0zm5.07 8.787a4.394 4.394 0 1 1-8.789 0 4.394 4.394 0 0 1 8.788 0zm-10.14 0a4.394 4.394 0 1 1-8.788 0 4.394 4.394 0 0 1 8.787 0zm-10.143 0a4.394 4.394 0 1 1-8.788 0 4.394 4.394 0 0 1 8.788 0z"/><path fill="#FFF" d="M1.134 50.315h113.669V35.15H1.133v15.165z"/><path fill="#BEBFC2" d="M5.61 39.094h2.905c1.364 0 2.849.286 2.849 1.98 0 .869-.54 1.463-1.342 1.716v.022c1.023.133 1.705.891 1.705 1.903 0 1.628-1.54 2.167-2.926 2.167H5.61v-7.788zm1.717 3.113H8.57c.528 0 1.078-.22 1.078-.846 0-.65-.616-.815-1.155-.815H7.327v1.661zm0 3.223h1.54c.539 0 1.144-.23 1.144-.913 0-.736-.825-.858-1.386-.858H7.327v1.77zM17.249 39.094h1.419l3.388 7.788H20.12l-.671-1.65h-3.025l-.65 1.65h-1.891l3.366-7.788zm.66 2.267l-.946 2.42h1.903l-.957-2.42zM31.35 43.879c0 1.837-1.122 3.201-3.277 3.201-2.167 0-3.29-1.364-3.29-3.201v-4.785H26.5v4.719c0 .957.66 1.683 1.574 1.683.902 0 1.562-.726 1.562-1.683v-4.719h1.716v4.785zM38.731 40.997c-.275-.352-.824-.517-1.242-.517-.484 0-1.156.22-1.156.803 0 1.42 3.587.506 3.587 3.234 0 1.738-1.397 2.563-3.004 2.563-1 0-1.88-.297-2.617-.98l1.22-1.341c.353.462.925.737 1.497.737.56 0 1.187-.264 1.187-.814 0-1.43-3.651-.66-3.651-3.256 0-1.661 1.44-2.53 2.97-2.53.88 0 1.726.231 2.387.814l-1.178 1.287zM44.65 40.613h-2.222v-1.519h6.16v1.519h-2.222v6.269h-1.717v-6.27zM55.187 38.896c2.432 0 4.203 1.595 4.203 4.093 0 2.495-1.771 4.091-4.203 4.091-2.43 0-4.202-1.596-4.202-4.091 0-2.498 1.771-4.093 4.202-4.093zm0 6.6c1.463 0 2.42-1.056 2.42-2.507 0-1.453-.957-2.51-2.42-2.51s-2.42 1.057-2.42 2.51c0 1.45.957 2.507 2.42 2.507zM62.568 39.094h5.225v1.584h-3.509v1.584h3.245v1.584h-3.245v3.036h-1.716v-7.788zM71.038 39.094h5.225v1.584h-3.51v1.584H76v1.584h-3.245v3.036h-1.716v-7.788zM79.508 39.094h5.29v1.584h-3.574v1.452H84.6v1.584h-3.377v1.584h3.773v1.584h-5.49v-7.788zM95.865 39.094h1.42l3.387 7.788h-1.937l-.67-1.65H95.04l-.65 1.65H92.5l3.366-7.788zm.66 2.267l-.946 2.42h1.902l-.957-2.42zM110.23 46.332c-1.011.528-2.123.748-3.266.748-2.43 0-4.202-1.596-4.202-4.091 0-2.498 1.771-4.093 4.202-4.093 1.231 0 2.321.275 3.101 1l-1.21 1.32c-.462-.484-1.022-.736-1.891-.736-1.463 0-2.42 1.056-2.42 2.509 0 1.45.957 2.507 2.42 2.507.748 0 1.298-.209 1.617-.385v-1.265h-1.397v-1.584h3.046v4.07z"/></svg>