<svg xmlns="http://www.w3.org/2000/svg" viewBox="0 0 420.8730774 94.8583984"><path d="M21.094.967V36.68h34.604V.967h20.957v92.93H55.698V55.014H21.094v38.881H0V.966h21.094zM169.174 89.624c-6.485 2.202-18.754 5.234-31.026 5.234-16.957 0-29.227-4.272-37.777-12.548-8.555-7.994-13.237-20.127-13.1-33.775C87.412 17.651 109.883 0 140.355 0c11.999 0 21.23 2.344 25.782 4.55l-4.408 16.822c-5.108-2.207-11.446-3.999-21.65-3.999-17.51 0-30.743 9.927-30.743 30.059 0 19.165 11.992 30.468 29.228 30.468 4.825 0 8.686-.551 10.342-1.377V57.08h-14.342V40.674h34.61v48.95zM199.541 93.896L177.48.966h22.48l7.031 38.194c2.066 11.167 4 23.16 5.519 32.534h.273c1.514-10.063 3.72-21.23 6.065-32.675L226.709.967h22.334l7.441 39.155c2.07 10.894 3.594 20.82 4.971 31.162h.273c1.377-10.342 3.448-21.235 5.381-32.265L274.688.967h21.367l-23.985 92.93h-22.754l-7.86-39.986c-1.788-9.375-3.308-18.061-4.405-28.677h-.283c-1.65 10.479-3.164 19.302-5.372 28.677l-8.828 39.985h-23.027z"/><g><path d="M367.226.666l-53.677 92.93h107.324L367.226.667l-53.677 92.93h107.324z"/></g></svg>