<?xml version="1.0" encoding="UTF-8"?>
<svg xmlns="http://www.w3.org/2000/svg" viewBox="0 0 331 51.7">
  <defs>
    <style>
      .cls-1 {
        mix-blend-mode: multiply;
      }

      .cls-2 {
        isolation: isolate;
      }

      .cls-3 {
        fill: #181716;
      }

      .cls-3, .cls-4, .cls-5 {
        stroke-width: 0px;
      }

      .cls-4 {
        fill: #9c9c9c;
      }

      .cls-5 {
        fill: #fff;
      }
    </style>
  </defs>
  <g class="cls-2">
    <g id="Ebene_1" data-name="Ebene 1">
      <rect class="cls-5" width="331" height="51.7"/>
      <g class="cls-1">
        <path class="cls-3" d="m84.9,6.2h-6.3l-8.5,25.6v-5.4h-6.9V6.2h-5.8v25.9h18.8l1.5-4.5h8l1.4,4.5h6.2l-8.4-25.9Zm-5.6,16.3l2.4-8.3h0l2.4,8.3h-4.8Zm15.8,9.7h5.8v-15.9h0l10.6,15.9h5.8V6.2h-5.8v15.8h0l-10.6-15.8h-5.8v25.9Zm34.3-25.9h-8.2v25.9h8.2c6.2,0,11.3-5.7,11.3-13s-5.1-13-11.3-13Zm-1.1,20.2h-1.3v-14.5h1.4c3.7,0,6.4,2.6,6.4,7.3s-3,7.3-6.4,7.3Zm26.3-21.1c-6.4,0-12.3,5.5-12.3,13.3s5.2,14.3,12.3,14.3,12.3-5.9,12.3-14.3-5.9-13.3-12.3-13.3Zm0,21.1c-3.5,0-6.3-3.3-6.3-7.7s2.8-6.8,6.3-6.8,6.3,3.3,6.3,6.8-2.8,7.7-6.3,7.7Zm20.8-20.2h-5.8v25.9h12.7v-5.7h-6.9V6.2Zm16.1,5.7h4.8v-5.7h-15.4v5.7h4.8v20.2h5.8V11.9Zm28.1,7.2v2.7h7.7c0,4.8-4.7,8.1-9.2,8.1s-5.5-1.4-7.4-3.3c-1.9-2-3-4.6-3-7.3,0-5.8,4.7-10.8,10.6-10.8s6.7,1.8,8.9,4.9l2.1-2c-2.7-3.6-6.4-5.6-11-5.6-7.5,0-13.5,6.1-13.5,13.5s6.1,13.3,13.3,13.3,7.2-1.6,9.6-4.3c2.4-2.8,2.8-5.6,2.7-9.1h-10.8Zm17.8,1.6h.7l7.8,11.4h3.5l-8.3-11.6c4-.3,6.5-3.2,6.5-7.2,0-5.8-4.6-7.2-9.5-7.2h-3.7v25.9h2.9v-11.4Zm0-11.9h.9c3.5,0,6.6.4,6.6,4.7s-3.3,4.6-6.6,4.6h-.9v-9.3Zm18.6-2.7h-2.9v16.2c0,3,.3,5.3,2.5,7.5,1.8,1.7,4.3,2.6,6.7,2.6s5.2-1,7-3c2.1-2.1,2.3-4.4,2.3-7.2V6.2h-2.9v15.4c0,2,.1,4.3-1.3,5.9-1.2,1.4-3.2,2.3-5.1,2.3s-4.1-.9-5.2-2.5c-1.2-1.6-1.1-3.9-1.1-5.8V6.2Zm23.6,14.6h2.1c2.2,0,4.4-.3,6.2-1.7,1.6-1.3,2.5-3.5,2.5-5.6s-1-4.6-2.9-5.9c-1.9-1.3-4.2-1.4-6.4-1.4h-4.3v25.9h2.9v-11.3Zm0-11.9h1.1c3.4,0,6.8.3,6.8,4.5s-2.7,4.7-5.9,4.7h-1.9v-9.2Zm17.3,11.9h2.1c2.2,0,4.4-.3,6.2-1.7,1.6-1.3,2.5-3.5,2.5-5.6s-1-4.6-2.9-5.9c-1.9-1.3-4.2-1.4-6.4-1.4h-4.3v25.9h2.9v-11.3Zm0-11.9h1.1c3.4,0,6.8.3,6.8,4.5s-2.7,4.7-5.9,4.7h-1.9v-9.2Zm14.4,23.2h13.4v-2.7h-10.6v-10.2h10.2v-2.7h-10.2v-7.7h10.6v-2.7h-13.4v25.9Zm-290.8,0h11V6.2h-11v25.9Z"/>
        <g>
          <rect class="cls-4" x="6.2" y="6.2" width="11" height="25.9"/>
          <rect class="cls-4" x="34.6" y="6.2" width="11" height="25.9"/>
        </g>
      </g>
      <g>
        <path class="cls-3" d="m7.2,44.7h2v.7h-2.8v-7.2h.8v6.4Z"/>
        <path class="cls-3" d="m11.1,43.4l-.9,2h-.9l3.3-7.5,3.2,7.5h-.9l-.8-2h-3.1Zm1.5-3.6l-1.2,2.9h2.4l-1.2-2.9Z"/>
        <path class="cls-3" d="m16.8,38l5.6,5.9v-5.6h.8v7.5l-5.6-5.8v5.5h-.8v-7.5Z"/>
        <path class="cls-3" d="m24.7,38.3h1.3c1.1,0,1.9.1,2.8.9.8.7,1.2,1.7,1.2,2.7s-.4,2-1.2,2.7c-.9.8-1.7.9-2.8.9h-1.3v-7.2Zm1.4,6.4c.9,0,1.6-.1,2.3-.7.6-.6.9-1.3.9-2.1s-.3-1.6-.9-2.1c-.7-.6-1.4-.7-2.2-.7h-.6v5.7h.6Z"/>
        <path class="cls-3" d="m38.3,41.9c0,2.1-1.7,3.7-3.7,3.7s-3.7-1.6-3.7-3.7,1.7-3.7,3.7-3.7,3.7,1.7,3.7,3.7Zm-6.7,0c0,1.6,1.3,3,2.9,3s2.9-1.4,2.9-3-1.3-3-2.9-3-2.9,1.3-2.9,3Z"/>
        <path class="cls-3" d="m40.2,44.7h2v.7h-2.8v-7.2h.8v6.4Z"/>
        <path class="cls-3" d="m44.2,45.5h-.8v-6.4h-1.7v-.7h4.3v.7h-1.7v6.4Z"/>
        <path class="cls-4" d="m49.1,47.5h-.7v-9.5h.7v9.5Z"/>
        <path class="cls-3" d="m56.5,41.2v-2.9h.8v7.2h-.8v-3.5h-3.6v3.5h-.8v-7.2h.8v2.9h3.6Z"/>
        <path class="cls-3" d="m59.7,43.4l-.8,2h-.8l3.2-7.5,3.1,7.5h-.9l-.8-2h-3Zm1.5-3.6l-1.2,2.9h2.4l-1.2-2.9Z"/>
        <path class="cls-3" d="m65.2,38l5.4,5.9v-5.6h.8v7.5l-5.4-5.8v5.5h-.8v-7.5Z"/>
        <path class="cls-3" d="m76,39.7c-.3-.5-.6-.8-1.2-.8s-1.2.5-1.2,1.1.6.9,1.1,1.1l.5.2c.9.4,1.7.9,1.7,2s-1,2.2-2.2,2.2-1.9-.7-2.2-1.9l.8-.2c.1.7.6,1.3,1.4,1.3s1.4-.6,1.4-1.4-.6-1.1-1.3-1.4l-.4-.2c-.8-.4-1.5-.8-1.5-1.8s.9-1.8,1.9-1.8,1.4.4,1.8,1.1l-.6.4Z"/>
        <path class="cls-3" d="m83.1,39.7c-.3-.5-.6-.8-1.2-.8s-1.2.5-1.2,1.1.6.9,1.1,1.1l.5.2c.9.4,1.7.9,1.7,2s-1,2.2-2.2,2.2-1.9-.7-2.2-1.9l.8-.2c.1.7.6,1.3,1.4,1.3s1.4-.6,1.4-1.4-.6-1.1-1.3-1.4l-.4-.2c-.8-.4-1.5-.8-1.5-1.8s.9-1.8,1.9-1.8,1.4.4,1.8,1.1l-.6.4Z"/>
        <path class="cls-3" d="m87,45.5h-.8v-6.4h-1.7v-.7h4.1v.7h-1.7v6.4Z"/>
        <path class="cls-3" d="m90.3,42.6c0,.5,0,1.1.3,1.6.3.4.9.7,1.4.7s1-.2,1.4-.6c.4-.5.3-1.1.3-1.6v-4.3h.8v4.5c0,.8,0,1.4-.6,2-.5.5-1.2.8-1.9.8s-1.3-.3-1.8-.7c-.6-.6-.7-1.3-.7-2.1v-4.5h.8v4.3Z"/>
        <path class="cls-3" d="m97.7,45.5h-.8v-6.4h-1.7v-.7h4.1v.7h-1.7v6.4Z"/>
        <path class="cls-3" d="m104.6,44.7v.7h-5l3.8-6.4h-3.3v-.7h4.6l-3.8,6.4h3.7Z"/>
        <path class="cls-3" d="m108.6,43.4l-.8,2h-.8l3.2-7.5,3.1,7.5h-.9l-.8-2h-3Zm1.5-3.6l-1.2,2.9h2.4l-1.2-2.9Z"/>
        <path class="cls-3" d="m120.5,41.9c0,1,0,1.8-.7,2.5-.6.8-1.6,1.2-2.6,1.2-2,0-3.6-1.7-3.6-3.7s1.6-3.7,3.6-3.7,2.2.6,2.9,1.5l-.6.5c-.6-.8-1.4-1.4-2.4-1.4-1.6,0-2.8,1.4-2.8,3s.3,1.5.8,2c.5.5,1.2.9,2,.9,1.2,0,2.5-.9,2.5-2.2h-2.1v-.7h2.9Z"/>
        <path class="cls-4" d="m123.9,47.5h-.7v-9.5h.7v9.5Z"/>
        <path class="cls-3" d="m127.8,37.9l2.5,6,2.5-6,1.4,7.6h-.8l-.9-4.8h0l-2.2,5.1-2.2-5.1h0l-.9,4.8h-.8l1.4-7.6Z"/>
        <path class="cls-3" d="m142.1,41.9c0,2.1-1.6,3.7-3.6,3.7s-3.6-1.6-3.6-3.7,1.6-3.7,3.6-3.7,3.6,1.7,3.6,3.7Zm-6.5,0c0,1.6,1.3,3,2.8,3s2.8-1.4,2.8-3-1.3-3-2.8-3-2.8,1.3-2.8,3Z"/>
        <path class="cls-3" d="m144,45.5h-.8v-7.2h1c1.3,0,2.5.4,2.5,2s-.7,1.9-1.7,2l2.2,3.2h-.9l-2.1-3.1h-.2v3.1Zm0-3.9h.2c.9,0,1.8-.2,1.8-1.3s-.8-1.3-1.8-1.3h-.2v2.6Z"/>
        <path class="cls-3" d="m154.7,41.9c0,1,0,1.8-.7,2.5-.6.8-1.6,1.2-2.6,1.2-2,0-3.6-1.7-3.6-3.7s1.6-3.7,3.6-3.7,2.2.6,2.9,1.5l-.6.5c-.6-.8-1.4-1.4-2.4-1.4-1.6,0-2.8,1.4-2.8,3s.3,1.5.8,2c.5.5,1.2.9,2,.9,1.2,0,2.5-.9,2.5-2.2h-2.1v-.7h2.9Z"/>
        <path class="cls-3" d="m155.8,38.3h3.6v.7h-2.8v2.1h2.7v.7h-2.7v2.8h2.8v.7h-3.6v-7.2Z"/>
        <path class="cls-3" d="m160.8,38l5.4,5.9v-5.6h.8v7.5l-5.4-5.8v5.5h-.8v-7.5Z"/>
        <path class="cls-3" d="m170.3,45.5h-.8v-6.4h-1.7v-.7h4.1v.7h-1.7v6.4Z"/>
        <path class="cls-3" d="m177.2,41.2v-2.9h.8v7.2h-.8v-3.5h-3.6v3.5h-.8v-7.2h.8v2.9h3.6Z"/>
        <path class="cls-3" d="m180.5,43.4l-.8,2h-.8l3.2-7.5,3.1,7.5h-.9l-.8-2h-3Zm1.5-3.6l-1.2,2.9h2.3l-1.2-2.9Z"/>
        <path class="cls-3" d="m186.7,44.7h1.9v.7h-2.7v-7.2h.8v6.4Z"/>
        <path class="cls-3" d="m189.4,38.3h3.6v.7h-2.8v2.1h2.7v.7h-2.7v2.8h2.8v.7h-3.6v-7.2Z"/>
        <path class="cls-3" d="m195.1,45.5h-.8v-7.2h1c1.3,0,2.5.4,2.5,2s-.7,1.9-1.7,2l2.2,3.2h-.9l-2.1-3.1h-.2v3.1Zm0-3.9h.2c.9,0,1.8-.2,1.8-1.3s-.8-1.3-1.8-1.3h-.2v2.6Z"/>
        <path class="cls-4" d="m201.6,47.5h-.7v-9.5h.7v9.5Z"/>
        <path class="cls-3" d="m207.8,39.7c-.3-.5-.6-.8-1.2-.8s-1.2.5-1.2,1.1.6.9,1.1,1.1l.5.2c.9.4,1.7.9,1.7,2s-1,2.2-2.2,2.2-1.9-.7-2.2-1.9l.8-.2c.1.7.6,1.3,1.4,1.3s1.4-.6,1.4-1.4-.6-1.1-1.3-1.4l-.4-.2c-.8-.4-1.5-.8-1.5-1.8s.9-1.8,1.9-1.8,1.4.4,1.8,1.1l-.6.4Z"/>
        <path class="cls-3" d="m215.1,39.9c-.6-.6-1.3-1-2.1-1-1.5,0-2.8,1.4-2.8,3s1.3,3,2.8,3,1.5-.4,2.1-1v1c-.6.4-1.3.7-2.1.7-2,0-3.6-1.6-3.6-3.7s1.6-3.7,3.6-3.7,1.5.2,2.1.7v1Z"/>
        <path class="cls-3" d="m220.8,41.2v-2.9h.8v7.2h-.8v-3.5h-3.6v3.5h-.8v-7.2h.8v2.9h3.6Z"/>
        <path class="cls-3" d="m224,37.9l2.5,6,2.5-6,1.4,7.6h-.8l-.9-4.8h0l-2.2,5.1-2.2-5.1h0l-.9,4.8h-.8l1.4-7.6Z"/>
        <path class="cls-3" d="m232.1,45.5h-.8v-7.2h.8v7.2Z"/>
        <path class="cls-3" d="m233.6,38.3h1.3c1,0,1.9.1,2.7.9.8.7,1.2,1.7,1.2,2.7s-.4,2-1.1,2.7c-.8.8-1.7.9-2.7.9h-1.3v-7.2Zm1.3,6.4c.8,0,1.6-.1,2.2-.7.6-.6.9-1.3.9-2.1s-.3-1.6-.9-2.1c-.6-.6-1.3-.7-2.2-.7h-.6v5.7h.6Z"/>
        <path class="cls-3" d="m240.6,44.7h1.9v.7h-2.7v-7.2h.8v6.4Z"/>
        <path class="cls-3" d="m244.1,45.5h-.8v-7.2h.8v7.2Z"/>
        <path class="cls-4" d="m247.8,47.5h-.7v-9.5h.7v9.5Z"/>
        <path class="cls-3" d="m250.8,38.3h1.1c1.3,0,2.3.5,2.3,1.9s-.2,1.1-.7,1.4c.8.2,1.3,1,1.3,1.8,0,1.4-1.1,2-2.5,2h-1.6v-7.2Zm.8,3.2h.3c.9,0,1.6-.1,1.6-1.2s-.7-1.2-1.6-1.2h-.3v2.4Zm0,3.3h.8c.9,0,1.8-.2,1.8-1.3s-1-1.3-1.9-1.3h-.7v2.6Z"/>
        <path class="cls-3" d="m263,41.9c0,2.1-1.6,3.7-3.6,3.7s-3.6-1.6-3.6-3.7,1.6-3.7,3.6-3.7,3.6,1.7,3.6,3.7Zm-6.5,0c0,1.6,1.3,3,2.8,3s2.8-1.4,2.8-3-1.3-3-2.8-3-2.8,1.3-2.8,3Z"/>
        <path class="cls-3" d="m264.8,44.7h1.9v.7h-2.7v-7.2h.8v6.4Z"/>
        <path class="cls-3" d="m268.3,44.7h1.9v.7h-2.7v-7.2h.8v6.4Z"/>
        <path class="cls-3" d="m271.8,45.5h-.8v-7.2h.8v7.2Z"/>
        <path class="cls-4" d="m275.6,47.5h-.7v-9.5h.7v9.5Z"/>
        <path class="cls-3" d="m282.3,38.3h1l-3.3,3.3,3.4,3.8h-1.1l-2.8-3.3-.2.2v3.1h-.8v-7.2h.8v3.1l3-3.1Z"/>
        <path class="cls-3" d="m284.2,38.3h3.6v.7h-2.8v2.1h2.7v.7h-2.7v2.8h2.8v.7h-3.6v-7.2Z"/>
        <path class="cls-3" d="m289.9,45.5h-.8v-7.2h1c1.3,0,2.5.4,2.5,2s-.7,1.9-1.7,2l2.2,3.2h-.9l-2.1-3.1h-.2v3.1Zm0-3.9h.2c.9,0,1.8-.2,1.8-1.3s-.8-1.3-1.8-1.3h-.2v2.6Z"/>
        <path class="cls-3" d="m294.2,38l5.4,5.9v-5.6h.8v7.5l-5.4-5.8v5.5h-.8v-7.5Z"/>
        <path class="cls-4" d="m304.2,47.5h-.7v-9.5h.7v9.5Z"/>
        <path class="cls-3" d="m307.9,45.5h-.8v-7.2h1c1.3,0,2.5.4,2.5,2s-.7,1.9-1.7,2l2.2,3.2h-.9l-2.1-3.1h-.2v3.1Zm0-3.9h.2c.9,0,1.8-.2,1.8-1.3s-.8-1.3-1.8-1.3h-.2v2.6Z"/>
        <path class="cls-3" d="m312.2,38.3h1.3c1,0,1.9.1,2.7.9.8.7,1.2,1.7,1.2,2.7s-.4,2-1.1,2.7c-.8.8-1.7.9-2.7.9h-1.3v-7.2Zm1.3,6.4c.8,0,1.6-.1,2.2-.7.6-.6.9-1.3.9-2.1s-.3-1.6-.9-2.1c-.6-.6-1.3-.7-2.2-.7h-.6v5.7h.6Z"/>
        <path class="cls-3" d="m318.5,38l5.4,5.9v-5.6h.8v7.5l-5.4-5.8v5.5h-.8v-7.5Z"/>
      </g>
    </g>
  </g>
</svg>