<svg xmlns="http://www.w3.org/2000/svg" viewBox="0 0 143.8506012 36.3579102"><path fill="none" d="M0 0h143.851v36.358H0z"/><path fill="#9D9D9C" d="M89.485 17.898H87.99l-1.148-10.66a27.6 27.6 0 0 1-.087-1.361h-.086c-.13.959-.174 1.898-.37 2.857l-1.775 9.164H83.29l-1.798-10.66c-.087-.46-.13-.9-.195-1.361h-.065c-.043.939-.021 1.918-.152 2.837l-1.3 9.184h-1.473l2.297-14.455h1.3l1.841 10.773c.087.479.13.96.194 1.438h.066c.108-.824.173-1.668.325-2.492l1.863-9.72h1.3l1.993 14.456zM101.14 17.898h-1.625l-.606-2.973h-3.467l-.585 2.973h-1.624l3.205-14.455h1.43l3.272 14.455zm-2.47-4.14l-1.083-5.542c-.195-.978-.281-1.974-.412-2.953h-.086c-.152.979-.26 1.975-.434 2.953l-.953 5.541h2.969zM107.206 16.671h3.553v1.227h-5.07V3.443h1.517V16.67zM120.442 4.67h-3.618v5.1h3.51v1.226h-3.51v5.675h3.618v1.227h-5.134V3.443h5.134V4.67zM125.88 17.898V3.443h1.625c2.274 0 4.463.152 4.463 3.68 0 1.841-.455 3.642-3.076 3.718l3.617 7.057h-1.604l-3.466-7.074h-.043v7.074h-1.516zm1.516-8.168h.542c2.123 0 2.47-.652 2.47-2.549 0-2.281-.78-2.511-2.708-2.511h-.304v5.06z"/><path d="M3.925 16.617h3.553v1.226h-5.07V3.388h1.517v13.229zM18.635 17.843H17.01l-.607-2.972h-3.467l-.584 2.972h-1.625l3.207-14.455h1.43l3.27 14.455zm-2.47-4.14l-1.083-5.541c-.195-.979-.282-1.975-.411-2.953h-.088c-.15.978-.26 1.974-.433 2.953l-.953 5.54h2.968zM29.986 17.843h-1.321l-3.684-9.72c-.238-.594-.367-1.246-.562-1.86h-.087c.065.94.173 1.86.173 2.799v8.781h-1.32V3.388h1.32l3.748 10.045c.195.498.348.998.498 1.496h.065c-.043-.633-.151-1.285-.151-1.918V3.388h1.321v14.455zM35.558 3.388h1.646c3.12 0 5.155.344 5.155 7.227 0 5.656-1.04 7.228-5.047 7.228h-1.754V3.388zm1.515 13.229h.434c2.924 0 3.293-1.822 3.293-6.002 0-4.965-.585-6-3.467-6h-.26v12.002zM55.27 10.615c0 2.703-.216 7.42-4.007 7.42-3.575 0-4.008-4.045-4.008-7.42 0-3.662.542-7.42 4.008-7.42 3.683 0 4.008 4.238 4.008 7.42zm-6.455 0c0 2.55.108 6.115 2.448 6.115s2.448-3.564 2.448-6.115c0-2.55-.109-6.115-2.448-6.115-2.34-.096-2.448 3.566-2.448 6.115zM62.16 16.617h3.553v1.226h-5.07V3.388h1.517v13.229zM75.132 4.615h-2.447v13.228h-1.518V4.615H68.72V3.388h6.412v1.227zM6.157 24.462v.11c0 1.295.214 3.562-1.827 3.562-1.818 0-2.031-1.547-2.031-3.464 0-1.899.173-3.5 1.94-3.5 1.086 0 1.604.486 1.867 1.384l-.964.352c-.102-.45-.244-.89-.873-.89-.833 0-.893 1.007-.893 2.646 0 2.357.446 2.627.893 2.627.416 0 .873-.053.873-1.674v-.37H4.29v-.783h1.868zM9.366 27.46h-.02c-.194.395-.397.657-.945.657-1.188 0-1.208-1.664-1.208-2.403 0-.755.03-2.287 1.239-2.287.446 0 .74.244.913.576h.02V23.5h.955v4.545h-.954v-.584zm.03-1.693c0-.36.041-1.584-.599-1.584-.71 0-.63 1.215-.63 1.584 0 .379-.08 1.594.63 1.594.64 0 .599-1.233.599-1.594zM12.513 24.021h.021c.213-.367.527-.594 1.035-.594 1.016 0 1.045.801 1.045 1.494v3.124h-.953v-3.141c0-.315-.061-.72-.57-.72-.63 0-.578.64-.578 1.027v2.834h-.954V23.5h.954v.521zM18.666 23.5l-1.716 3.789h1.625v.756H15.55l1.776-3.79h-1.644V23.5h2.985zM23.235 28.045H22.22v-6.786h1.015v6.786zM25.61 20.576v3.445h.02c.215-.367.53-.594 1.037-.594 1.025 0 1.045.801 1.045 1.494v3.124h-.954v-3.141c0-.315-.06-.72-.569-.72-.63 0-.579.64-.579 1.027v2.834h-.954v-7.47h.954zM29.905 24.058h.02c.224-.396.56-.63 1.088-.63v.837l-.163-.01c-.71 0-.935.352-.935.928v2.862h-.964V23.5h.954v.558zM37.003 22.302c-.264-.17-.518-.287-.863-.287-.559 0-.905.405-.905.873 0 .297.082.504.286.739l.771.746c.69.62 1.086 1.072 1.086 1.99 0 .953-.67 1.771-1.797 1.771-.396 0-.803-.097-1.117-.324v-.908c.305.197.61.351 1.006.351.629 0 .892-.441.892-.945 0-1.35-2.141-1.621-2.141-3.402 0-.953.568-1.736 1.716-1.736.385 0 .751.052 1.076.224l-.01.908zM39.571 22.212V23.5h.508v.666h-.508v3.879h-.955v-3.88H38.1V23.5h.517v-1.288h.955zM40.86 22.123c0-.307.286-.559.641-.559.334 0 .629.252.629.559 0 .314-.295.566-.629.566-.355 0-.64-.252-.64-.566zm1.108 5.922h-.955V23.5h.955v4.545zM44.15 28.045h-.954v-7.47h.954v7.47z"/><g><path fill="none" d="M45.544 25.812s17.288-7.582 33.941 0c16.655 7.58 60.588 0 60.588 0"/><g fill="#9D9D9C"><path d="M137.683 26.172l.186.021c-.169.043-.25.051-.186-.021zM140.11 26.021c-.619.112-1.595.267-2.24.172.54-.14 1.961-.679 2.24-.172zM137.438 25.31l.79.043c-.424.217-.383-.053-.79-.044zM137.794 25.774l-.009.206-.44-.132zM98.233 30.714c.078.091.125.188.084.309l-.084-.309zM96.452 29.722l-.369-.07c.11-.011.203.014.37.07zM99.889 30.67l-.323.02.323-.02zM119.938 29.09c.31.12.603.227.825.298-.566.206-.644-.12-.826-.298zM88.61 25.997l-.096.147c-.07-.085-.099-.162.096-.147zM96.164 27.01l-.054.21-.089-.044zM101.177 30.364l.016-.018.262.102c-.142.03-.23.002-.278-.084zM86.282 25.343l-.215-.407c.21.12.28.295.215.407zM96.037 29.65l-.003-.007.049.008zM98.71 27.292l-.402-.096c.171-.03.313.02.402.096zM119.938 29.09l-.264-.1a.323.323 0 0 1 .263.1zM135.667 26.841c-.249.039-.324-.067-.388-.175l.388.175zM46.498 26.56l-.091.03.091-.03zM55.647 24.58l.141.106c-.072.055-.128-.01-.141-.106z"/><path d="M64.289 20.013c-.666.24-1.348-.234-1.933-.252l.201.198-.586-.162.014.288c-.97-.144-2.131.288-2.517-.16l.147.45-1.046-.292.611.269c-1.125.167-2.88.069-3.126.088l.128.157c-.174.108-.334.017-.536-.003l.187.229c-1.7.22-2.051.846-3.955.998-.491.17.3.02.337.159-.228.256-.917.209-1.081.141.238.344.98.057.469.5-.457-.087.366.288-.374.397l-.408-.426c-.385.192.018.41-.632.526-.79-.027.747-.795-.454-.562-.589.207-.904 1.485-2.093 1.589-.869.572.75.59-.599.908l.941.039c-.17.209.048.409-.543.49-.24-.127-.672-.242-.983-.155 1.327-.073-.832.932.447.999l-.407.134c.055 0 .087.04.074.088l-.498.236c.338-.023 1.143-.273.913.218l-.683.373c.277.192.098.396.228.59.695-.086 1.535-.205 2.326-.264-.14-.134-.5-.132-.436-.337.558-.34.582.126 1.081-.273l-.32-.14c.07.067.158.068.045.136-.154.206-.293.07-.338-.066.105-.347.753-.334.98-.192.735-.257.008-.545.147-.677.519.338 1.264-.36 1.796-.266l-.382-.224c.489-.525 1.093-.35 1.462-.309l-.191-.221c.828-.124 1.07-1.083 1.878-.296l-.12-.154c.325-.136.813-.415 1.187-.202-.012-.108.025-.25.158-.305.244.322.551-.022 1.053-.138-.349-.046-.308-.523-.682-.572.726-.578.8.411 1.457.32.37-.281-.388-.21-.508-.367 1.045.11 2.023-1.308 2.76-.424l-.42.321c.425.169.645.151.589.07-.129.038-.18-.045-.234-.126 1.217-.571 1.97.537 3.193.358-.093-.17-.272-.224-.28-.368.575-.184.557.88 1.475.516l-.176-.197c.312-.125.53.19.486.24.055-.771 1.928.14 2.66-.823.422.482 1.655.975 2.08.793.636-.389-.43-.571-.158-.974.452.064.626.484 1.31.467-.066.406-1.433.657-.254 1.092l.211-.192c-.133.006-.318.047-.485-.032-.317-.298.26-.26.359-.346l1.286.402c.001.47-.752.203-.854.3 1.03.128 2.453-.321 3.309.302l-.041-.192c1.09.733.952-.593 1.695.397.547.042-.03-.527.756-.311.212.082.029.196-.028.236.863.52.562-.245 1.26.49l-.005-.526c.914.725 1.594 1.91 2.625 2.108.082-.371-.493-.568-.598-.918.955 1.148 2.92 1.207 3.992 1.823-.442.215.38.867-.462.921-.072-.527-.519-.294-.914-.482.388 1.23 2.919.244 2.91 1.151l.257-.33c.174.093.59.47.24.517l1.39.02c-.43-.341-1.275-1.204-1.663-.866-.291-.468.594-.145.356-.662.753.786.586-.13 1.467.156-.512.467.781.874.7 1.127.318-.052.952.315 1.188.522.536.11 1.817-.138 2.653.115-.309-.198-.796-.473-.72-.815.398.244.86.276.977-.115-1.397-.872-.577.877-1.87.24-.275-.497-.626-.648-1.29-.878.347-.212.227-.349.4-.645.704 1.065 2.154.383 3.2.946.436.325.028.898 1.083 1.101l-.941.21c1.03-.174.213.311 1.038.486l-.304-.338c.512-.02.694.043.959.291l-.394-.513c.279-.042.789-.07.775.217a.549.549 0 0 0 .115-.287c.05.084.174.144.495.15-.183-.068-.32-.047-.314-.19 1.21.195.315-.503 1.065-.41-.111-.118.109-.248.38-.296-.059.762 1.436.927 1.82 1.367l-.006-.01 1.015.332c-.206-.067.023-.27.323-.345l-.05.003c.328-.111-.365-.838.6-.597l.507.237c-.089-.03 0-.144.048-.201l.522.213c.807-.712 1.516.41 2.463.056-.272.067-.688.006-.511-.223.182-.086.459-.004.604.106l-.05-.085 1.808.446c-.152-.255-1.16-.26-.714-.558.26-.352.782.01 1.105.032-.036.201-.63.388-.024.488.072-.097.64-.325.368-.461.618.188 1.517.286 2.082.628.172-.093-.104-.169-.198-.194l-.041.06c-.376-.102-.074-.516-.797-.286-.082-.662 1.042-.208 1.678-.33l-1.033-.415c1.676-.958 4.014-.093 5.715-.183-.486.236-.912.061-.824.574 1.072.19.924.081 1.983.117l-.091-.022c.522-.301 1.303.161 1.626-.33-.256-.263-.754.32-.808-.252l1.327-.053c-.44-.305-1.326.054-1.836.006-.36.056.737.03.59.416-1.238.065-1.543-.283-2.184-.786-.393-.376.512-.438.74-.459.822.542 1.992.745 3.193.376l.638-.489c.635.349.441 1.146 1.528.954l-.352-.284c.227-.144.38-.198.496-.206a24.334 24.334 0 0 1-1.46-.627c.563-.714 1.808.174 2.732.227-.054-.079-.375-.078-.486-.24 1.343-.282 2.843.37 3.908.36.412-.336-.893-.101-.721-.554.569.108 1.152-.334 1.343.049-.301-.542 1.261-.179.15-.597 1.956-.463 4.197-.199 6.244-.135-.121-.158-.139-.3-.07-.426-.676.093-1.693.057-2.115-.293.406-.345 1.099.257 1.205.07-.245-.112-.693-.052-.738-.336.54-.393.92.02 1.335.022l-.203.173c1.322.222.833.9 2.162.566.443-.414-.042-.284-.108-.711.34.125 1.298-.483 1.693-.076l-.81.15c.588.042 1.127-.037 1.544.055-.054-.086-.1-.176-.224-.196.47.074 1.05-.045 1.322.203l.06-.476c-.24.243-1.045.397-1.217.16.02-.41.873-.279 1.225-.365-1.596.105-1.716-.604-3.01-.121l.246.109c-.786.462-1.721.002-2.446.113.193-.12.214-.293.108-.357-1.568.565-3.187.493-5.001.915l-.605-.39.003.348c-.884.252-.248-.461-.823-.365.22-.025.185.036.241.117-1.087-.28-.547.381-1.144.333.318.34 1.145.015.935.53-1.086-.278-2.69.103-2.922-.716-1.904.53-4.353.202-5.983.254-.211.163.147.103.072.225-.678-.433-2.14.483-2.177.054-.305.14-.417.465-.494.586-.426-.184-.926-.257-1.457-.287l.392.097-.04.06-.554-.137.02-.027c-1.314-.05-2.82.117-4.02-.308.692.262-.154.525.173.686-.626-.67-2.065-.632-3.23-.555.006.144-.083.26.056.372l-.681-.272.09.17c-1.214.15-2.53-.634-3.33-.31.492.086.493.228.541.458-.87-.018-1.687-.057-2.695-.282l.087.144c-.269.057-.58-.127-.849-.223l-.049.343c-.511-.182-1.188-.034-1.789-.336-.261.364-1.459-.45-2.171-.337-.264-.102.557.434-.199.363-.046-.754-.978-.112-.964-.92l-.682.231-.102-.412c-.64.702-.804-.432-1.645-.295.03.09.116.13.068.182-.256-.116-.855-.244-.357-.389-.442-.034-1.862-.47-1.276.06-.01-.239.555.065.809.175-.086.344-.715.103-.934.446l-.143-.18-.13.195c-.755-.496-1.625-.385-2.102-.996-.054.097-.21.15-.48.069l.082-.424-.83-.185.24.712c-.938-.132-1.42-.946-2.076-1.292-.414.625-1.294-.693-2.083-.36l.46.4c-1.063-.576-1.454-.263-2.634-1.003 1.129.194 1.225.386 2.7.349-1.28-.194-2.434-1.421-3.972-1.582.04.2.364.448-.05.474-.147-.491-1.387-.452-1.031-.796-.51 0-.71.362-1.007.336l-1.405-.971.026.097c-2.86.328-4.904-1.725-7.748-1.486l.037.233-.668-.377c.527.254-.248.275-.3.474-.575-.19-1.157-.42-1.743-.565-.04.203.057.66.489.567zm21.456 5.446l.357.106a.29.29 0 0 1 .227.067l-.227-.067c-.2.017-.377.166-.357-.106zm35.6 1.47l-.636.009c.127-.042.596.053.393-.129.094.02.32-.004.244.12zM84.65 28.14l.229.282.28-.237-.509-.045zm-4.957-1.57l.46.368.065-.036-.465-.37-.06.039zm-5.045-4.355l.092.088-.092-.088c-.377-.328-.677.122-.902-.466.537-.29.707.224.902.466zm10.134 3.616c.06-.282-.51-.483-.628-.72-.265-.007.005.327.051.517-.132-.004-.209-.052-.365-.151-.06.607.512-.08.942.354zm11.595 1.617l-.139.024.491.247-.352-.271zm2.331.389c.268.377.991.328 1.488.42.136-.314-.363-.693-.947-.672-.675-.296-.272.485-.541.252zm-19.885-3.55c.305.242.556 1.048 1.341.986l-.43-.354.138.023-.027-.287c-.136.686-.717-.218-1.022-.369zm24.902 3.784c.504.219 1.419.484 1.338.745.024-.49-.708-.703-.932-.697-.134.031-.229.006-.406-.048zm.151.543c-.272.061-.17.382-.677.156.083-.26-.116-.89-.837-.685.557.455.608.691 1.344.907l.17-.378zm-.937-.993l-.295.066c-.35.202-.426.757-.915.2l.915-.2.295-.066zm6.12-.108l-.305-.155c.293.004.331.077.305.155l.253.133c-.642.205-.314.02-.253-.133zm-5.528.217l.863.037c-.275.065-.811.193-.863-.037zm5.353.227c-.363.052-1.31.14-1.177.108.076-.262.939-.236 1.177-.108zm18.754-1.206l-.222.377.546-.042-.324-.335zm-5.587 1.085l-.32.005-.118.186.438-.19zm-6.328.708a.3.3 0 0 0-.053-.246l-.217-.133c.082-.006.162.053.217.133.24.063.589-.006.743-.125-.11-.163-.47-.102-.618-.207.507-.444 1.81.68 1.373-.464.238.123 1.042.37.79.594-.623-.02-1.78.2-2.235.448-.022.064-.07.117-.177.133l.177-.133zm-7.952.67c-.223-.023-.322-.055-.368-.093-.194-.08-.342-.208-.293-.371.472.128.178.27.293.371l.368.092zm.075.515l-1.12-.446.378.244-.74-.201c.104.312.853.657 1.482.403zm-1.736-.17l-.157-.276.237.28-.08-.004.036.063-1.239-.141 1.203.078zm-12.589-.86c-.542.933 1.039.764 1.249 1.244.075-.32.574-.791-.631-.86 1.062-.256.612.669 1.283-.099-.502.028-1.083-.265-1.168-.298l.588.005c-.288-.622-.923.237-1.32.008zm-6.343-.596l-.704-.215.755.165-.051.05zm-18.285-4.991c.02.233-.997.52-1.18.063.496 0 1.032.092 1.18-.063zm-8.133-.375l.87.144c-.146.509-.765.026-1.167.139-.155-.247.172-.1.297-.283zm-5.587.63l-.287-.035.372.458-.085-.423zm1.07.828c-.129.053-.718.043-.587-.215l.587.215zm-5.454.787l.426.361-.332.12-.094-.481zm.261-.398c.117.024.187.113.245.218.214.07.524.034.79-.169-.101-.21-.277-.014-.47-.022.125-.06.302-.267.588-.24-.205.46.015.409.06.753-.734.412-.805-.024-.968-.322-.126-.04-.217-.116-.245-.218zm3.075-.794c.1-.059.186-.12.216-.184l.065.077c-.083.165-.185.148-.28.107l-.37.202c-.03.303.555.38.73.522-.275-.042-.556-.268-.867-.022.062.074.03.141.246.09l-.461.166c-.63-.28-.137-.514.352-.756.004-.067.029-.14.112-.235.074-.058.164-.007.257.033zm-3.564.568c-.072-.07-.016-.205-.18-.279l-.287-.012c-.303.264.152.344.467.29zm15.797-2.093c-.184.078.208.442.62.374l-.25.42c.014-.287-.803-.295-.892-.328-.12-.408.188-.221.522-.466zm19.612 5.583c-.192-.191-1.29-.068-1.303-.652-.488.515.747.67 1.303.652zm.24-.568l.252.076c.286.171.169.613.758.462-.116-.133-.364-.025-.475-.169.08-.262-.01-.229-.283-.293l-.251-.076zm-10.197-3.414l-.247-.491-.592-.14.84.63zm-6.156-2.204c.014.234-.675.152-.805.02.005.306.47.326.831.404.045.031.118.056.236.07l-.236-.07c-.126-.087-.007-.228.01-.333l.199-.063-.503-.146.268.118zm-11.495-.57c-.39.284-.447.205-.737.157.076-.128.447-.206.737-.158zm14.97.982c-.728.001.226.513-.264.563l.367.044c-.657.19-.336-.42-.77-.417l.29-.001c.287-.236-.381-.281-.384-.516.354-.048 1.054.327.76.327zm-15.65-1.095c-.66.377-.61-.239-1.041-.24.523-.33.511.223 1.04.24zm10.803-.81l.053-.052.56.24-.054.05-.56-.238z"/><path d="M57.213 24.086a.724.724 0 0 1-.355.051l.355-.051zM87.742 29.673l.178-.117c-.017.043-.062.084-.178.117zM89.057 30.07l.05.008.04.032zM135.324 27.273c.335.326-.263.099-.487.132.226-.034.275-.303.487-.132zM133.46 26.912c.15.09.352.138.589.137-.146.031-.309.015-.588-.137zM134.933 26.867a2.523 2.523 0 0 1-.884.182c.225-.048.398-.213.884-.182zM128.683 27.63c.307.193.832.01.83.01-1.147.352.29.398.41.553-.74.014-.782-.274-1.24-.562zM127.118 27.699l.32-.081a.516.516 0 0 1-.32.08zM126.706 27.968c-.414-.007-.586-.247-.793-.424.47-.24.83.133 1.205.155-.29.037-.573.041-.412.27zM114.229 30.336c.095.021.323.003.337.147l-.687.052c-.281-.065.216-.16.35-.2zM111.655 29.79c-.548.006-.245.361-.527.292l.007-.49.52.198zM111.826 27.3l.162.04-.181-.007zM109.034 30.395l.402.526c-.47-.119-.492-.55-.402-.526zM106.943 30.829l.33.158-1.018-.132zM104.401 30.615l-.088.117-.696-.128zM77.22 25.977c.07-.467 1 .111 1.337.117-.423.453-.727-.497-1.338-.117zM58.113 23.765l1.03-.006c-.773.246-.22.02-1.03.006z"/></g></g></svg>