<svg xmlns="http://www.w3.org/2000/svg" viewBox="0 0 413.183075 70.9624023"><path fill-rule="evenodd" clip-rule="evenodd" d="M364.841 32.692c0-2.812 1.658-3.659 5.047-3.659h1.772c4.775 0 5.699.617 5.699 3.236v2.695c0 2.62-.924 3.235-5.7 3.235h-1.77c-3.39 0-5.048-.847-5.048-3.658v-1.85zm-7.392 3.274c0 6.469 4.351 7.779 8.127 7.779h11.052c3.774 0 8.125-1.31 8.125-7.78v-4.698c0-6.47-4.351-7.78-8.125-7.78h-11.052c-3.776 0-8.127 1.31-8.127 7.78v4.699zm-30.684 1.348c0 4.852 2.502 6.43 9.318 6.43h7.01c8.434 0 10.514-1.347 10.514-6.545 0-3.506-.654-6.471-9.512-6.471h-5.123c-3.851 0-4.43-.309-4.43-1.156 0-1.347.81-1.463 5.084-1.463 4.43 0 5.123.193 5.508 1.348h7.395c-.078-4.622-1.772-5.97-11.438-5.97h-5.162c-5.084 0-9.012.732-9.012 5.623 0 5.392 2.041 6.894 8.936 6.932h6.932c2.619 0 3.197.463 3.197 1.618 0 1.194-.887 1.464-4.39 1.464h-2.62c-4.197 0-4.582-.732-4.582-1.81h-7.625zm-30.455 0c0 4.852 2.504 6.43 9.318 6.43h7.01c8.436 0 10.516-1.347 10.516-6.545 0-3.506-.656-6.471-9.514-6.471h-5.123c-3.85 0-4.428-.309-4.428-1.156 0-1.347.809-1.463 5.084-1.463 4.428 0 5.123.193 5.508 1.348h7.393c-.076-4.622-1.772-5.97-11.438-5.97h-5.16c-5.084 0-9.012.732-9.012 5.623 0 5.392 2.041 6.894 8.936 6.932h6.932c2.619 0 3.195.463 3.195 1.618 0 1.194-.885 1.464-4.39 1.464h-2.62c-4.195 0-4.582-.732-4.582-1.81h-7.625zm-4.346-13.518h-7.394v9.897c0 2.812-1.889 4.275-5.045 4.275h-1.695c-3.235 0-4.776-.963-4.776-2.889V23.796h-7.394v11.283c0 8.473 6.394 8.666 10.974 8.666 3.967 0 6.55-.732 7.86-3.467l.076 3.159h7.394V23.796zm-51.994 19.64h7.395v-10.86c0-2.349 1.771-3.311 4.313-3.311 2.966 0 3.544 1.193 3.544 3.697h6.393c.037-.693.076-1.233.076-1.733 0-5.43-2.117-7.742-7.51-7.742-3.35 0-6.354.925-7.201 4.044l-.078-3.735h-6.932v19.64z"/><path fill-rule="evenodd" clip-rule="evenodd" fill="#9D9D9C" d="M21.798 34.58c0 3.388-1.733 5.276-6.47 5.276H8.936c-4.045 0-5.662-1.388-5.624-5.893v-3.62c.038-3.236 2.465-4.16 5.854-4.16h6.74c4.66 0 5.969 2.35 5.892 6.008v2.388zm3.312-10.784h-3.08V27.3c-1.117-3.196-3.62-3.813-6.124-3.813H8.858c-3.697 0-8.858.81-8.858 7.934v3.274c0 5.045 2.734 7.856 8.242 7.856h6.817c4.621 0 5.969-1.195 6.662-3.042l.077 2.926c0 5.315-2.619 5.393-9.166 5.393H9.398c-3.082 0-5.7-.733-5.7-3.274v-.54H.616v.656c0 2.503 1.616 5.853 7.702 5.853h7.471c4.121 0 9.32-1.194 9.32-7.125V23.796zm6.692 19.64h3.311v-19.64h-3.311v19.64zm0-24.262h3.311v-3.62h-3.311v3.62zm9.351 16.6c0 6.47 4.584 7.97 10.862 7.97h4.736c6.278 0 10.86-1.5 10.86-7.97v-4.315c0-6.47-4.582-7.972-10.86-7.972h-4.736c-6.278 0-10.862 1.503-10.862 7.972v4.314zM64.3 35.58c0 4.583-2.696 5.469-6.547 5.469h-6.74c-3.851 0-6.548-.886-6.548-5.47v-3.928c0-4.583 2.697-5.469 6.548-5.469h6.74c3.851 0 6.547.886 6.547 5.469v3.929zm17.094 7.856h3.928l11.091-19.641h-3.505l-9.55 16.945-9.551-16.945h-3.505l11.092 19.64zm38.66 0h3.312V30.266c0-5.854-4.16-6.779-10.322-6.779h-5.237c-5.932 0-8.204 1.464-8.204 5.045v.963h3.312v-.693c0-1.617.81-2.619 4.968-2.619h4.853c5.084 0 7.317.463 7.317 4.006v3.697c-1.232-1.887-2.773-2.35-7.086-2.35h-5.315c-5.777 0-8.935.54-8.935 5.007v1.309c0 3.698 1.31 5.893 6.316 5.893h7.934c5.084 0 6.123-.5 7.01-2.273l.076 1.965zm0-5.275c0 2.463-2.312 2.888-8.32 2.888h-4.39c-4.544 0-5.315-.925-5.315-3.12v-.616c0-2.465 1.194-3.082 5.47-3.082h5.083c5.083 0 7.471.347 7.471 3.042v.888zm9.154 5.275h3.312V32.269c0-4.622 1.771-6.086 9.513-6.086h.847c6.431 0 7.24 1.887 7.24 4.776v12.478h3.312V30.15c0-3.543-1.964-6.663-8.165-6.663H140.3c-4.12 0-6.7.655-7.933 3.698l-.077-3.39h-3.081v19.642zm30.453 0h3.312V32.269c0-4.622 1.772-6.086 9.513-6.086h.847c6.432 0 7.24 1.887 7.24 4.776v12.478h3.313V30.15c0-3.543-1.964-6.663-8.164-6.663h-4.97c-4.12 0-6.7.655-7.933 3.698l-.076-3.39h-3.082v19.642zm30.917 0h3.311V23.796h-3.311v19.64zm0-24.263h3.311v-3.62h-3.311v3.62zm-39.434 42.72c0 1.928-.986 3.002-3.681 3.002h-3.636c-2.3 0-3.22-.79-3.198-3.352v-2.06c.022-1.84 1.402-2.365 3.33-2.365h3.833c2.65 0 3.395 1.335 3.352 3.418v1.357zm1.883-6.133h-1.753v1.992c-.635-1.816-2.058-2.168-3.482-2.168h-4.008c-2.103 0-5.039.461-5.039 4.514v1.861c0 2.87 1.555 4.47 4.688 4.47h3.877c2.628 0 3.395-.679 3.79-1.731l.044 1.664c0 3.023-1.49 3.066-5.214 3.066h-1.84c-1.753 0-3.242-.416-3.242-1.861v-.307h-1.752v.373c0 1.424.92 3.328 4.381 3.328h4.25c2.343 0 5.3-.677 5.3-4.052V55.76zm4.08 11.17h1.885v-11.17h-1.884v11.17zm0-13.799h1.885v-2.058h-1.884v2.058zm18.365 9.375c0 2.584-1.314 3.067-3.505 3.067h-3.35c-1.994 0-3.659-.438-3.659-3.11V60.34c0-1.927.941-3.22 3.417-3.22h3.746c2.65 0 3.351 1.029 3.351 3.199v2.19zm-12.398 8.324h1.884v-5.388c.438 1.16 1.336 1.666 3.33 1.666h3.592c3.877 0 5.476-1.229 5.476-4.842v-1.97c0-3.858-2.498-4.712-5.17-4.712h-3.57c-1.665 0-3.198.592-3.746 1.95l-.043-1.774h-1.753v15.07zm17.18-7.074c0 3.352 2.607 3.352 5.389 3.352h3.46c2.3 0 5.192-.112 5.192-3.244 0-3.067-1.928-3.35-4.754-3.35h-4.972c-1.97 0-2.278-.525-2.278-1.447v-.416c0-1.27.592-1.533 3.286-1.533h3.285c2.06 0 3.199.045 3.199 1.752l1.752.109v-.59c0-1.578-.591-2.805-4.84-2.805h-2.892c-4.645 0-5.674 1.008-5.674 2.827v.656c0 2.125.986 2.98 3.636 2.98h5.806c2.255 0 2.562.59 2.562 1.664 0 1.752-.898 1.862-3.724 1.862h-4.03c-1.928 0-2.65-.569-2.65-1.95v-.546h-1.753v.68zm31.007 3.174h1.884v-7.008c0-1.797 1.118-2.804 3.526-2.804h1.885c3 0 3.68.877 3.68 3.045v6.767h1.883v-6.613c0-1.797.46-3.2 3.856-3.2h1.335c3.001 0 3.57 1.249 3.57 2.542v7.271h1.885v-7.49c0-2.541-1.863-3.856-4.884-3.856h-2.279c-1.927 0-3.439.547-4.14 2.059-.592-1.379-1.906-2.059-3.614-2.059h-3.045c-1.885 0-2.958.329-3.746 1.49l-.044-1.314h-1.752v11.17zm27.586 0h1.883v-11.17h-1.883v11.17zm0-13.799h1.883v-2.058h-1.883v2.058zm6.974 10.45c0 1.816.833 3.527 4.358 3.527h1.03c4.076 0 4.294-1.775 4.294-4.01v-1.226h-1.533v.831c0 2.344-.394 2.87-2.891 2.87h-.593c-2.059 0-2.781-.635-2.781-2.715v-5.565h7.47v-1.533h-7.47v-2.65h-1.884v2.65h-2.454v1.533h2.454v6.288zm80.938.175c0 3.352 2.606 3.352 5.389 3.352h3.459c2.3 0 5.191-.112 5.191-3.244 0-3.067-1.925-3.35-4.752-3.35h-4.972c-1.973 0-2.278-.525-2.278-1.447v-.416c0-1.27.592-1.533 3.286-1.533h3.285c2.06 0 3.199.045 3.199 1.752l1.752.109v-.59c0-1.578-.592-2.805-4.842-2.805h-2.89c-4.643 0-5.674 1.008-5.674 2.827v.656c0 2.125.986 2.98 3.636 2.98h5.805c2.256 0 2.562.59 2.562 1.664 0 1.752-.898 1.862-3.724 1.862h-4.03c-1.927 0-2.652-.569-2.652-1.95v-.546h-1.75v.68zm-17.181 7.074h1.884v-5.388c.438 1.16 1.336 1.666 3.33 1.666h3.592c3.877 0 5.477-1.229 5.477-4.842v-1.97c0-3.858-2.498-4.712-5.17-4.712h-3.57c-1.666 0-3.198.592-3.747 1.95l-.042-1.774h-1.754v15.07zm12.398-8.324c0 2.584-1.314 3.067-3.504 3.067h-3.351c-1.995 0-3.659-.438-3.659-3.11V60.34c0-1.927.942-3.22 3.418-3.22h3.744c2.65 0 3.352 1.029 3.352 3.199v2.19zm-18.363-9.375h1.883v-2.058h-1.883v2.058zm0 13.8h1.883v-11.17h-1.883v11.17zm-14.44 0h1.883v-7.097c0-1.445.965-2.716 2.96-2.716h1.16c3.35 0 3.92.44 3.92 3.199v.48h1.751v-1.334c0-2.74-1.16-3.879-4.687-3.879h-1.774c-1.29 0-2.717.352-3.418 1.797l-.043-1.62h-1.752v11.17zm-3.97-11.17h-1.754v1.991c-.635-1.816-2.059-2.168-3.483-2.168h-4.008c-2.103 0-5.039.461-5.039 4.514v1.861c0 2.87 1.555 4.47 4.69 4.47h3.875c2.63 0 3.396-.679 3.79-1.731l.044 1.664c0 3.023-1.488 3.066-5.213 3.066h-1.84c-1.754 0-3.242-.416-3.242-1.861v-.307h-1.752v.373c0 1.424.92 3.328 4.38 3.328h4.249c2.346 0 5.303-.677 5.303-4.052V55.76zm-1.885 6.132c0 1.928-.986 3.002-3.68 3.002h-3.637c-2.3 0-3.22-.79-3.197-3.352v-2.06c.022-1.84 1.4-2.365 3.33-2.365h3.832c2.65 0 3.397 1.335 3.352 3.418v1.357z"/><path fill-rule="evenodd" clip-rule="evenodd" fill="#646363" d="M273.287 11.42l-50.628.001v32.032h-11.422V0h62.05zM351.203.005h61.98v66.942h-61.98V55.625h50.632v-44.2h-50.632z"/></svg>