<svg xmlns="http://www.w3.org/2000/svg" viewBox="0 0 113.3856964 38.6181984"><path d="M63.629 5.647L61.386 0h-3.32l2.242 5.647h3.32M0 5.647h113.386v32.971H0z"/><path fill="#FFF" d="M20.673 26.088c-.73-2.674-3.109-4.34-5.737-5.372l-1.597-.62c-1.39-.533-2.875-1.226-2.875-2.971 0-1.952 1.75-2.842 3.313-2.842 1.5 0 2.937 1.187 3.812 2.437l2.75-1.5c-1.212-2.159-3.89-3.687-6.375-3.687-3.371 0-6.75 1.985-6.75 5.592 0 3.408 2.394 4.752 4.937 5.845l1.539.65c1.43.594 2.89 1.21 3.544 2.47.226.434.355.941.355 1.553 0 2.332-1.542 4.004-3.938 4.004-2.395 0-4.31-1.847-5.063-4.123l-3.062.561c1.063 3.936 4.108 6.504 7.716 6.504 3.993 0 7.659-2.756 7.659-6.754 0-.625-.08-1.207-.227-1.747h-.001M55.406 26.09l-3.441 8.057h3.376l3.435-8.056 6.017-14.127-3.357-.002-6.03 14.129M50.155 11.964l-5.503 14.127-.561 1.433-.528-1.433-5.347-14.622h-.313l-5.235 14.622-.516 1.433-.572-1.433-5.6-14.127h-3.467l5.82 14.127 3.507 8.493h.75l3.065-8.493 2.497-6.933 5.438 15.426h.812l3.36-8.493 5.582-14.127h-3.19M104.995 26.09l-6.692-14.87h-.393l-7.03 14.87-3.813 8.057h3.352l2.554-5.375 9.768-.032 2.57 5.407h3.315l-3.63-8.056m-10.774-.096l3.688-7.775 3.5 7.775h-7.188zM77.972 14.595c2.1 0 3.937 1.063 5.562 2.312v-3.75c-1.686-1.035-3.361-1.562-5.313-1.562-6.567 0-11.778 4.813-11.778 11.69 0 .976.119 1.914.345 2.803v.003c1.265 4.973 5.85 8.43 11.246 8.43 1.952 0 3.598-.494 5.314-1.5v-3.5c-1.439 1.189-3.5 1.939-5.376 1.939-3.738 0-6.779-2.103-7.906-5.36v-.01a8.804 8.804 0 0 1-.47-2.893c0-4.938 3.376-8.602 8.376-8.602M64.826 8.64h-3.321l-1.197-2.993h3.32l1.198 2.992"/></svg>