<svg xmlns="http://www.w3.org/2000/svg" viewBox="0 0 596.6300659 55.9570885"><path fill="#0D0E0E" d="M589.523 54.685h7.107V1.272h-7.107v53.413zm-31.045-5.984V1.27h-7.107v53.414h33.065v-5.984h-25.958zm-18.627 5.984h8.528l-21.769-31.12 21.171-22.293h-9.052l-24.687 26.931V1.272h-7.107v53.413h7.107V36.881l7.93-8.38 17.88 26.184zm-39.049-15.784h-7.107c-2.494 7.181-8.154 10.772-16.982 10.772-6.383 0-11.333-2.082-14.85-6.247-3.515-4.164-5.273-9.313-5.273-15.447s1.758-11.284 5.274-15.449c3.516-4.164 8.466-6.246 14.85-6.246 4.538 0 8.104.885 10.697 2.656 2.594 1.77 4.663 4.45 6.21 8.041h7.106C496.887 5.86 488.882.3 476.713.3c-8.478 0-15.136 2.644-19.973 7.93-4.838 5.287-7.257 11.87-7.257 19.75s2.419 14.463 7.257 19.749c4.837 5.287 11.495 7.93 19.973 7.93 6.434 0 11.77-1.621 16.01-4.863 4.239-3.241 6.932-7.206 8.079-11.894m-64.709 15.784h7.107V1.272h-7.107v53.413zm-39.049-27.829v-19.6h11.745c7.78 0 11.67 3.068 11.67 9.202 0 3.242-.947 5.785-2.842 7.63-1.896 1.846-4.688 2.768-8.38 2.768h-12.193zm28.203 15.635c-1.097-3.64-2.282-6.42-3.554-8.34-1.271-1.92-2.954-3.18-5.05-3.779 3.343-.798 6.01-2.518 8.006-5.162 1.994-2.643 2.992-5.56 2.992-8.752 0-4.439-1.559-8.08-4.676-10.922-3.117-2.843-7.593-4.264-13.428-4.264h-19.6v53.413h7.107V32.841h10.1c2.942 0 5.149.76 6.62 2.282 1.47 1.521 2.755 3.778 3.853 6.77.349.947.773 2.331 1.271 4.152a60.183 60.183 0 0 0 1.534 4.862c.524 1.422 1.16 2.681 1.907 3.778h8.08v-.748a18.34 18.34 0 0 1-2.282-3.553c-.623-1.272-1.097-2.394-1.421-3.367-.325-.972-.81-2.481-1.459-4.526M362.11 16.608h7.107c-.3-5.387-2.107-9.501-5.424-12.344S356.05 0 350.514 0c-5.186 0-9.588 1.384-13.203 4.152-3.616 2.768-5.374 6.595-5.274 11.483.05 1.945.473 3.69 1.271 5.236.798 1.547 1.696 2.794 2.694 3.741.997.948 2.468 1.858 4.414 2.73 1.945.873 3.54 1.497 4.787 1.87 1.247.375 3.042.886 5.386 1.534a338.877 338.877 0 0 0 4.077 1.122c.375.1.985.287 1.833.561.848.275 1.459.487 1.833.637.374.15.898.386 1.57.71.674.324 1.16.624 1.46.898.299.274.673.623 1.122 1.047.449.424.76.86.935 1.31.175.448.337.96.486 1.533.15.573.225 1.184.225 1.833 0 3.042-1.297 5.398-3.89 7.07-2.594 1.67-5.611 2.505-9.052 2.505-4.09 0-7.382-1.034-9.875-3.104-2.494-2.07-3.766-5.1-3.815-9.09h-7.107c0 5.985 1.908 10.511 5.723 13.578s8.84 4.601 15.074 4.601c3.391 0 6.558-.536 9.5-1.608 2.943-1.073 5.437-2.843 7.482-5.312 2.044-2.468 3.066-5.424 3.066-8.865 0-1.097-.112-2.144-.336-3.142a21.228 21.228 0 0 0-.748-2.618c-.274-.748-.748-1.484-1.422-2.207a331.22 331.22 0 0 0-1.646-1.758c-.423-.449-1.147-.935-2.169-1.459-1.022-.523-1.77-.91-2.244-1.16-.474-.249-1.36-.573-2.656-.972s-2.157-.66-2.58-.785c-.425-.125-1.36-.374-2.806-.748a157.303 157.303 0 0 1-2.693-.711c-4.19-1.097-7.369-2.332-9.538-3.703-2.17-1.372-3.255-3.304-3.255-5.798 0-3.042 1.085-5.324 3.255-6.845 2.17-1.52 4.875-2.282 8.116-2.282 3.591 0 6.322.873 8.192 2.619 1.87 1.746 3.005 4.414 3.404 8.005M304.433 7.63h.224l9.576 25.585h-19.376l9.576-25.585zm17.88 47.055h7.33L308.996 1.272h-8.902l-20.647 53.413h7.33l5.91-15.635h23.715l5.91 15.635zM263.437 1.272l-14.887 45.484-14.961-45.41-11.97-.074v53.413h7.107V8.304h.15l15.56 46.381h8.229L268.15 8.304h.15v46.381h7.107V1.272h-11.97zm-75.182 48.7c-6.334 0-11.346-2.17-15.037-6.508-3.69-4.339-5.536-9.501-5.536-15.485 0-5.985 1.846-11.147 5.536-15.486 3.691-4.339 8.703-6.509 15.037-6.509 6.334 0 11.346 2.17 15.037 6.51 3.69 4.338 5.535 9.5 5.535 15.485 0 5.984-1.845 11.146-5.535 15.485-3.69 4.339-8.703 6.508-15.037 6.508m0-49.972c-8.378 0-15.086 2.705-20.124 8.117-5.037 5.41-7.555 12.031-7.555 19.862s2.518 14.45 7.555 19.861c5.038 5.412 11.746 8.117 20.124 8.117 8.379 0 15.087-2.705 20.124-8.117 5.037-5.411 7.556-12.031 7.556-19.861s-2.519-14.451-7.556-19.862C203.343 2.705 196.635 0 188.256 0m-40.47 1.272v23.64H122.05V1.271h-7.107v53.413h7.107v-23.79h25.734v23.79h7.107V1.272h-7.107zm-37.33 0H70.583v5.985h16.383v47.428h7.107V7.257h16.383V1.272zM24.986 0v7.648l1.622 17.022-10.89-13.183-5.407-5.408-4.232 4.232 5.408 5.408 13.183 10.89-17.022-1.623H0v5.985h7.648l17.022-1.622-13.183 10.89-5.408 5.407 4.232 4.232 5.408-5.408 10.889-13.183-1.622 17.022v7.648h5.985v-7.648l-1.622-17.022L40.238 44.47l5.408 5.408 4.232-4.232-5.408-5.408-13.183-10.889 17.021 1.622h7.649v-5.985h-7.649l-17.021 1.622L44.47 15.72l5.408-5.408-4.232-4.232-5.408 5.408-10.89 13.183 1.623-17.022V0z"/></svg>