<?xml version="1.0" standalone="no"?>
<!DOCTYPE svg PUBLIC "-//W3C//DTD SVG 20010904//EN"
 "http://www.w3.org/TR/2001/REC-SVG-20010904/DTD/svg10.dtd">
<svg version="1.0" xmlns="http://www.w3.org/2000/svg"
 width="512.000000pt" height="512.000000pt" viewBox="0 0 512.000000 512.000000"
 preserveAspectRatio="xMidYMid meet">
<metadata>
Created by potrace 1.14, written by Peter Selinger 2001-2017
</metadata>
<g transform="translate(0.000000,512.000000) scale(0.100000,-0.100000)"
fill="#000000" stroke="none">
<path d="M3101 4968 c-10 -3 -26 -28 -36 -55 -10 -26 -29 -71 -42 -100 -12
-28 -23 -54 -23 -57 0 -5 -19 -48 -60 -141 -5 -11 -39 -92 -75 -180 -36 -88
-72 -173 -80 -190 -7 -16 -140 -331 -295 -700 -156 -368 -292 -691 -303 -718
-11 -26 -17 -50 -14 -53 7 -8 613 -8 625 0 5 3 42 91 83 196 l74 190 425 -2
424 -3 76 -194 77 -193 322 0 c177 0 324 1 326 3 3 4 -39 109 -65 164 -9 20
-204 482 -253 600 -23 57 -345 818 -372 880 -22 50 -120 282 -175 415 -29 69
-56 129 -60 133 -9 10 -554 15 -579 5z m478 -1223 c10 -22 41 -104 41 -108 0
-1 -108 -2 -240 -2 -132 0 -240 2 -240 5 0 7 230 581 237 594 3 5 48 -99 100
-230 51 -132 97 -248 102 -259z"/>
<path d="M510 3863 l0 -1093 43 -1 c54 0 434 0 508 0 l56 1 1 368 c0 202 1
376 1 388 1 21 2 21 511 21 281 0 513 3 516 6 3 2 6 115 7 251 2 212 0 246
-13 247 -8 1 -238 2 -512 3 -273 0 -500 4 -504 8 -5 6 -9 251 -5 343 1 20 8
20 571 19 l570 -1 1 26 c1 31 1 481 0 497 -1 8 -253 11 -876 11 l-875 0 0
-1094z"/>
<path d="M799 2350 l-25 -5 361 -1085 c198 -597 363 -1091 365 -1098 5 -11
159 -16 460 -13 l76 1 11 32 c153 434 370 1058 385 1103 33 101 39 112 48 95
7 -14 51 -137 160 -455 171 -495 264 -761 270 -768 9 -11 520 -11 530 0 7 8
48 122 55 153 2 8 21 67 43 130 113 328 632 1904 628 1908 -7 6 -616 6 -622
-1 -4 -4 -52 -161 -276 -904 -57 -188 -105 -339 -108 -336 -3 2 -98 284 -211
626 l-206 622 -264 2 -264 3 -208 -631 c-115 -347 -210 -629 -212 -627 -3 3
-292 956 -346 1142 -16 55 -31 101 -33 103 -6 6 -589 9 -617 3z"/>
</g>
</svg>
