<?xml version="1.0" standalone="no"?>
<!DOCTYPE svg PUBLIC "-//W3C//DTD SVG 20010904//EN"
 "http://www.w3.org/TR/2001/REC-SVG-20010904/DTD/svg10.dtd">
<svg version="1.0" xmlns="http://www.w3.org/2000/svg"
 width="512.000000pt" height="512.000000pt" viewBox="0 0 512.000000 512.000000"
 preserveAspectRatio="xMidYMid meet">
<metadata>
Created by potrace 1.14, written by Peter Selinger 2001-2017
</metadata>
<g transform="translate(0.000000,512.000000) scale(0.100000,-0.100000)"
fill="#000000" stroke="none">
<path d="M3065 4904 c-14 -31 -25 -59 -25 -61 0 -3 -6 -19 -14 -36 -44 -98
-66 -148 -66 -153 0 -3 -12 -31 -26 -62 -14 -31 -35 -79 -46 -106 -10 -27 -28
-70 -39 -95 -30 -69 -33 -75 -99 -236 -35 -82 -73 -174 -86 -203 -13 -29 -24
-55 -24 -57 0 -4 -20 -51 -60 -140 -5 -11 -39 -92 -75 -180 -37 -88 -73 -173
-80 -190 -8 -16 -50 -118 -95 -225 -45 -107 -99 -237 -121 -287 -21 -51 -39
-96 -39 -100 0 -5 142 -8 315 -8 l315 0 11 30 c6 16 15 39 20 50 4 11 31 79
59 150 28 72 54 137 59 145 7 13 66 15 428 16 l419 1 77 -196 78 -196 323 0
323 0 -8 25 c-4 14 -85 207 -179 430 -95 223 -225 531 -290 685 -65 154 -177
420 -250 590 -72 171 -145 345 -163 388 l-32 77 -293 0 -292 0 -25 -56z m430
-964 c60 -151 110 -283 113 -292 4 -17 -12 -18 -232 -18 -130 0 -236 4 -236 9
0 8 168 435 196 498 8 17 14 33 14 36 0 20 22 59 29 51 5 -5 57 -133 116 -284z"/>
<path d="M524 4941 c-2 -2 -4 -493 -4 -1090 l0 -1086 303 0 302 0 0 388 c0
337 2 387 15 388 8 0 239 1 513 1 448 1 497 3 498 17 4 42 5 467 1 477 -2 9
-140 12 -508 12 -278 0 -508 3 -512 7 -11 11 -9 354 3 358 5 2 261 3 567 2
367 0 559 3 561 10 2 5 3 125 3 265 l-1 255 -868 0 c-478 0 -870 -2 -873 -4z"/>
<path d="M783 2345 c2 -5 23 -68 46 -140 23 -71 46 -139 51 -150 11 -27 50
-145 56 -170 3 -11 132 -402 288 -870 l282 -850 266 -3 265 -2 32 92 c18 51
54 154 80 228 27 74 90 254 141 400 178 512 181 522 186 517 3 -3 93 -258 189
-537 29 -85 83 -240 120 -345 36 -104 79 -226 94 -270 l28 -80 265 -3 266 -2
292 882 c160 486 296 897 303 913 6 17 12 35 14 40 1 6 18 57 38 115 20 58 37
110 38 115 2 6 11 34 21 62 9 29 15 56 13 60 -6 9 -613 11 -619 3 -3 -3 -26
-77 -52 -165 -26 -88 -60 -203 -77 -255 -33 -110 -148 -488 -154 -510 -19 -69
-88 -297 -93 -305 -3 -5 -99 272 -213 615 l-207 625 -263 0 -262 0 -202 -605
c-110 -333 -205 -614 -209 -625 -7 -16 -12 -9 -26 40 -10 33 -79 263 -154 510
-75 248 -139 457 -141 465 -22 84 -59 197 -66 205 -14 14 -641 14 -636 0z"/>
</g>
</svg>
