<svg xmlns="http://www.w3.org/2000/svg" width="25" height="25" viewBox="0 0 25 25"><path fill="currentColor" d="M12.5 0C5.6 0 0 5.6 0 12.5S5.6 25 12.5 25 25 19.4 25 12.5 19.4 0 12.5 0zM9.3 3.8h6.4c3 0 5.4 2.4 5.4 5.4v6.4c0 3-2.4 5.4-5.4 5.4H9.3c-3 0-5.4-2.4-5.4-5.4V9.3c-.1-3 2.4-5.5 5.4-5.5zm0 2c-1.9 0-3.5 1.6-3.5 3.5v6.4c0 1.9 1.6 3.5 3.5 3.5h6.4c1.9 0 3.5-1.6 3.5-3.5V9.3c0-1.9-1.6-3.5-3.5-3.5H9.3zM17 7.4c.4 0 .6.3.6.6 0 .4-.3.6-.6.6-.4 0-.6-.3-.6-.6-.1-.3.2-.6.6-.6zm-4.5.3c2.7 0 4.8 2.2 4.8 4.8s-2.2 4.8-4.8 4.8-4.8-2.2-4.8-4.8 2.1-4.8 4.8-4.8zm0 1.9c-1.6 0-2.9 1.3-2.9 2.9s1.3 2.9 2.9 2.9 2.9-1.3 2.9-2.9-1.3-2.9-2.9-2.9z"/></svg>