<svg xmlns="http://www.w3.org/2000/svg" width="156" height="54" viewBox="0 0 156 54"><path fill="#181716" d="M138.4 46.5v-3.4h2.5c1.3 0 2.1.6 2.1 1.7 0 1-.8 1.7-2.1 1.7h-2.5zm-3.9 7.3h3.9v-4.2h1.7l2.8 4.2h4.5l-3.3-4.9c1.7-.7 2.9-2.2 2.9-4.3 0-1.4-.4-2.5-1.2-3.3-.9-1-2.4-1.5-4.6-1.5h-6.6v14zm-9.3.2c4 0 6.6-2 6.6-6.5v-7.8h-3.9v7.9c0 2-1 2.9-2.6 2.9s-2.6-1-2.6-3v-7.8h-3.9v7.9c-.1 4.4 2.4 6.4 6.4 6.4m-22.1-.2h3.9v-5.3h5v5.3h3.9v-14H112V45h-5v-5.2h-3.9v14zm-10.2 0h3.9V43.2h4.2v-3.4H88.7v3.4h4.2v10.6zm-14.5-7.3v-3.4H81c1.3 0 2.1.6 2.1 1.7 0 1-.8 1.7-2.1 1.7h-2.6zm-3.8 7.3h3.9v-4.2h1.7l2.8 4.2h4.5l-3.3-4.9c1.7-.7 2.9-2.2 2.9-4.3 0-1.4-.4-2.5-1.2-3.3-.9-1-2.4-1.5-4.6-1.5h-6.6v14zm-13.9 0h11.4v-3.3h-7.5v-2.2h6.7v-3.1h-6.7v-2.1H72v-3.3H60.7v14zm-10.3 0h3.9V43.2h4.2v-3.4H46.2v3.4h4.2v10.6zm-19.6 0h3.8v-7.7l6 7.7H44v-14h-3.8v7.4l-5.8-7.4h-3.6v14zm-6.9 0h3.9v-14h-3.9v14zm-19.2.1h3.4l2.8-8.1 2.8 8.1h3.4l4.7-14.1h-4l-2.4 8.1-2.7-8.1H9.2l-2.7 8.1-2.4-8.1H0l4.7 14.1zM146.9 26v-3.4h2.5c1.3 0 2.1.6 2.1 1.7 0 1-.8 1.7-2.1 1.7h-2.5zm-3.9 7.3h3.9V29h1.7l2.8 4.2h4.5l-3.3-4.9c1.7-.7 2.9-2.2 2.9-4.3 0-1.4-.4-2.5-1.2-3.3-.9-1-2.4-1.5-4.6-1.5H143v14.1zm-9.4.2c4 0 6.6-2 6.6-6.5v-7.8h-3.9v7.9c0 2-1 2.9-2.6 2.9s-2.6-1-2.6-3v-7.8h-3.9v7.9c0 4.4 2.5 6.4 6.4 6.4m-16.5-.2h3.9V22.7h4.2v-3.4h-12.3v3.4h4.2v10.6zm-18.4 0h3.9v-3.6l1.4-1.6 3.5 5.2h4.7l-5.5-8 5.3-6h-4.6l-4.8 5.7v-5.7h-3.9v14zm-13.8 0h11.4V30h-7.5v-2.2h6.7v-3.1h-6.7v-2.1h7.4v-3.3H84.9v14zm-10.3 0h3.9V22.7h4.2v-3.4H70.4v3.4h4.2v10.6zm-10.4 0h3.9v-14h-3.9v14zm-15.8 0h3.9V28h5v5.3h3.9v-14h-3.9v5.2h-5v-5.2h-3.9v14zm-8.3.3c3.1 0 4.9-1.3 6.2-3.2l-2.9-2.1c-.8 1-1.7 1.7-3.2 1.7-2 0-3.3-1.6-3.3-3.7 0-2 1.4-3.7 3.3-3.7 1.3 0 2.3.6 3.1 1.6l2.9-2.3C45 20.2 43.1 19 40.3 19c-4.2 0-7.4 3.2-7.4 7.3 0 4.2 3.2 7.3 7.2 7.3M22.3 26v-3.4h2.5c1.3 0 2.1.6 2.1 1.7 0 1-.8 1.7-2.1 1.7h-2.5zm-3.8 7.3h3.9V29H24l2.8 4.2h4.5L28 28.4c1.7-.7 2.9-2.2 2.9-4.3 0-1.4-.4-2.5-1.2-3.3-.9-1-2.4-1.5-4.6-1.5h-6.6v14zM7.2 27.8l1.6-4 1.6 4H7.2zM.9 33.3H5l1-2.5h5.4l1 2.5h4.2l-6-14.1H6.9l-6 14.1zM65.3 14.3h3.8v-8l3.6 5.4h.1l3.6-5.5v8h3.9V.2h-4.1l-3.3 5.4L69.6.2h-4.1v14.1zm-9.4.2c4 0 6.6-2 6.6-6.5V.3h-3.9v7.9c0 2-1 2.9-2.6 2.9s-2.6-1-2.6-3V.3h-3.9v7.9c0 4.3 2.5 6.3 6.4 6.3M38.6 7V3.6h2.5c1.3 0 2.1.6 2.1 1.7 0 1-.8 1.7-2.1 1.7h-2.5zm-3.8 7.3h3.9V10h1.7l2.8 4.2h4.5l-3.3-4.9c1.7-.7 2.9-2.2 2.9-4.3 0-1.4-.4-2.5-1.2-3.3-.9-1-2.4-1.5-4.6-1.5h-6.6v14.1zm-10.1-3.2c-2.1 0-3.6-1.8-3.6-3.8 0-2 1.4-3.7 3.5-3.7s3.6 1.8 3.6 3.8c.1 1.9-1.3 3.7-3.5 3.7m0 3.5c4.3 0 7.6-3.3 7.6-7.3S29.1.1 24.8.1s-7.6 3.3-7.6 7.3c0 3.9 3.2 7.2 7.5 7.2m-20.5-.3h3.9v-5h6.6V6.1H8.1V3.7h7.3V.3H4.2v14z"/></svg>